<svg xmlns="http://www.w3.org/2000/svg" viewBox="0 0 366.2 369.1"><g id="Layer_2" data-name="Layer 2"><g id="Layer_1-2" data-name="Layer 1"><path d="M.1,55.1c0-17.4,0-34.7-.1-52C0,.6.6,0,3.1,0h60c25.3,25.5,49,52.6,75,77.5,14.1,13.6,27.1,28.5,40.5,42.8,5,5.3,5,5.3,9.9,0,13.9-14.6,27.2-29.8,41.8-43.7S257.9,48.3,271.7,34c10.8-11.2,21-23.1,32.4-33.9h59c2.5,0,3.1.6,3.1,3.1-.2,18.3-.1,36.6-.1,55-1.7-.4-2.8.6-3.9,1.7-6.5,6.4-13.1,12.7-19.5,19.2-13.8,14-27.5,28.2-41.2,42.2-5.8,5.9-5.9,5.9-.2,11.8,15.7,16.1,31.2,32.3,46.9,48.4,3,3,3.1,5.1,0,8.2q-24.6,24.5-48.8,49.4c-2.9,3-4.8,2.6-7.3-.2a139.9,139.9,0,0,0-10-10.4c-3.1-2.9-3.2-5.2-.2-8.3,9.6-10.6,19.4-21.1,29.7-31.1,3-2.9,2.8-4.8-.1-7.7-10.3-10-20.4-20.1-30.3-30.5-3.3-3.4-5.4-3.2-8.5.1-10.3,10.9-20.7,21.7-31.3,32.2-3,3.1-2.7,5.1,0,7.9,6.3,6.6,12.5,13.3,18.7,20.1,21.8,23.8,44.6,46.7,67,70,11.4,11.7,22.5,23.6,33.8,35.4,1.5,1.6,2.8,3.4,5.2,3.6,0,15.3-.1,30.6.1,46,0,2.5-.6,3-3.1,3-21.3-.1-42.7,0-64,0a15.6,15.6,0,0,0-1.6-2c-24.3-25.3-49.4-49.8-73.2-75.7-11.9-13-24.5-25.4-36.7-38.1-4.6-4.7-4.7-4.8-9.3,0-16.2,16.9-32.4,34-48.7,50.8-21,21.8-42.9,42.8-63.5,65-20.9,0-41.8-.1-62.7,0-2.7.1-3.4-.4-3.4-3.2.2-14.6.1-29.2.1-43.8,10-9.8,19.1-20.5,28.9-30.4,32-32.8,64.2-65.4,95.1-99.1,3.3-3.6,3.7-5.8.1-9.4-10.8-10.7-21.3-21.6-31.7-32.6-3.3-3.5-5.4-3-8.5.2-9.6,10.1-19.3,20.2-29.3,30-3.1,3.1-3,5.1,0,8.2,10.4,10.6,20.5,21.4,30.9,32,1.7,1.8,2.1,2.9.2,4.9-4.6,4.6-9,9.3-13.4,14.1-2.2,2.4-4.1,2-6.2-.2L18.8,191.1c-4.4-4.5-4.3-5.2.1-9.8q23.9-24.9,47.8-49.7c2.2-2.3,3.7-4.2.8-7-17.3-16.9-33-35.3-50.9-51.5C10.5,67.7,4.6,62,.1,55.1ZM42.3,341.8c9.8,2.3,16.2-2.4,22.5-9.3,13.4-14.7,27.2-28.9,41.1-42.9,31.9-32.3,63.9-64.3,95.4-96.9,2.7-2.9,2.6-4.8,0-7.5-4.8-4.8-9.5-9.8-14.2-14.8s-4.4-4.4-9.2,0c-7.6,6.8-11.1,16.4-17.7,23.8q-30.6,35-62.5,68.7l-58,61.2c-3.3,3.5-6.7,7-9.9,10.6a4.6,4.6,0,0,0-1.2,5.1c.9,2.1,2.9,1.9,4.7,1.9ZM325.5,26.4c-6.3-1.7-11.1,2.2-16,7.3-13.8,14.4-27.4,29-41.7,43-21.9,21.6-42.8,44.2-64.3,66.2-2.4,2.5-1.8,4.1.3,6.2,4.4,4.5,8.9,9,13.1,13.7,2.8,3.2,4.7,3,7.6,0,14.3-15.4,28.9-30.5,43.2-45.8,21.1-22.4,43.6-43.5,65.4-65.2a17.3,17.3,0,0,0,5.7-13.2C338.7,26.3,338.9,26.3,325.5,26.4ZM40.3,26.3H34.1c-6.3.1-6.1.4-6.7,6.4-.9,8.3,1.3,15,7.8,20.3,1.4,1.2,2.5,2.7,3.8,4,19,18.5,37.8,37.4,56.2,56.6,15.7,16.3,31.5,32.6,47.1,48.9,2.7,2.8,4.4,3.3,7.1,0s8.5-8.9,12.8-13.3c1.9-1.9,2.1-3.4.1-5.5-7.4-7.8-14.5-16-22.1-23.7C112,91,83.6,62.2,55.5,33.1,50.8,28.2,46.2,24.6,40.3,26.3ZM323.9,341.8h8.5c1.9,0,4.2.7,5.1-1.9s-.8-3.7-2.2-5.2l-30.1-32c-5.9-6.5-11.3-13.5-17.5-19.7-8-8-16.1-15.9-23.8-24.2-10.1-11.1-20.3-22-30.5-33-1-1.1-2.2-2.4-2.4-3.7-.6-4.3-3.7-6.9-6.1-10.1s-4-2.7-6.4-.2c-4,4.3-8,8.5-12.4,12.4s-3.4,5.6,0,9.2c32.2,33,64.4,66.1,96.2,99.5C308.5,339.3,314.5,344,323.9,341.8Z"/></g></g></svg>