<?xml version="1.0" encoding="UTF-8"?>
<svg version="1.1" xmlns="http://www.w3.org/2000/svg" width="500" height="500">
<path d="M0 0 C1.02260162 -0.00307895 1.02260162 -0.00307895 2.06586185 -0.0062201 C4.36098291 -0.01189563 6.65604407 -0.01043217 8.95117092 -0.00901413 C10.60907877 -0.01159746 12.266986 -0.01461053 13.92489237 -0.01801753 C18.48945558 -0.02609477 23.05400308 -0.02787751 27.61857259 -0.028615 C32.53832667 -0.03046433 37.45807257 -0.03801113 42.37782192 -0.04475021 C53.14037598 -0.05833991 63.90292632 -0.06435945 74.66548753 -0.06876087 C81.38541541 -0.07152261 88.10534184 -0.07575988 94.82526875 -0.08026505 C113.42929558 -0.09245929 132.03332125 -0.10275781 150.63735199 -0.10614014 C151.82839166 -0.1063597 153.01943132 -0.10657927 154.2465631 -0.10680549 C155.44046469 -0.10702377 156.63436628 -0.10724204 157.8644467 -0.10746694 C160.28377124 -0.1079104 162.70309577 -0.10835697 165.12242031 -0.10880661 C166.32249064 -0.10902804 167.52256098 -0.10924947 168.75899708 -0.10947761 C188.1994072 -0.11342463 207.63977982 -0.13087504 227.08017547 -0.15416613 C247.03750572 -0.17788357 266.99481716 -0.19034219 286.95216173 -0.19150805 C298.15813135 -0.19242467 309.36405212 -0.19817358 320.57000828 -0.21632767 C330.11358956 -0.23173403 339.65710691 -0.23684599 349.20069826 -0.22858956 C354.06885255 -0.22468478 358.9368781 -0.2256043 363.80501652 -0.23964691 C368.26564375 -0.25239613 372.72604565 -0.25117931 377.18667262 -0.2390562 C378.79643072 -0.23710096 380.40620483 -0.24016962 382.01594044 -0.24890056 C393.87891804 -0.30914574 404.85693783 0.0775465 414.23692226 8.04549026 C424.32913206 18.53039305 424.54119929 30.40465883 424.50543118 44.12906265 C424.5084536 45.76979979 424.51234354 47.41053551 424.51702374 49.05126876 C424.52730086 53.54980795 424.52512264 58.04826741 424.52084315 62.54681313 C424.5183754 67.40242441 424.52739073 72.25801651 424.53488064 77.11362076 C424.54762852 86.62262923 424.5494212 96.13160946 424.54708038 105.64062504 C424.54529707 113.37060678 424.54704713 121.10057996 424.55130482 128.83056068 C424.55190001 129.93089459 424.5524952 131.03122849 424.55310842 132.16490584 C424.55432018 134.40027653 424.55553431 136.63564721 424.5567508 138.8710179 C424.56762679 159.83370049 424.56546363 180.79636701 424.55936595 201.75905051 C424.55419738 220.93084845 424.56545057 240.10259557 424.58446417 259.27438346 C424.60384259 278.96516074 424.61209852 298.65591397 424.60834092 318.34670085 C424.6064288 329.39946489 424.60891745 340.45218568 424.62305546 351.50494194 C424.6349703 360.91484929 424.636373 370.32468678 424.62426529 379.7345951 C424.61837722 384.53391536 424.61727524 389.33310784 424.62926769 394.13241959 C424.64012837 398.52997944 424.6370209 402.92730484 424.62300601 407.32485374 C424.62035959 408.91160994 424.62272389 410.49838453 424.63074187 412.08512268 C424.69019442 424.73338428 423.84084834 436.19943168 415.24473476 446.13142776 C407.41591169 453.40332237 399.02766478 456.24991743 388.41886044 456.26564884 C387.40302452 456.26917719 387.40302452 456.26917719 386.36666667 456.27277681 C384.09289293 456.27944423 381.81917663 456.27900927 379.54539394 456.27859879 C377.90042264 456.28189882 376.25545215 456.28562468 374.61048269 456.28974026 C370.08624667 456.29975257 365.56202391 456.30347582 361.03777838 456.30612957 C356.15958404 456.31003492 351.28140019 456.31961313 346.40321255 456.32834244 C334.6201867 456.34810061 322.83716 456.35817237 311.05412173 456.36707023 C305.50399612 456.3714543 299.95387146 456.37682081 294.4037466 456.3820591 C275.95152135 456.39907094 257.49929668 456.41356476 239.04706478 456.42080784 C234.25911362 456.4227177 229.47116247 456.42463804 224.68321133 456.42659378 C222.89819878 456.42731939 222.89819878 456.42731939 221.07712537 456.42805966 C201.80301397 456.43635863 182.52896466 456.46169352 163.25488037 456.49417446 C143.46249086 456.52725666 123.67013289 456.54525766 103.87771559 456.54845208 C92.766694 456.55061612 81.65576296 456.5593494 70.54476833 456.58491325 C61.08140548 456.6066361 51.61815516 456.61466285 42.1547702 456.60494647 C37.32885194 456.60040636 32.50316579 456.60227127 27.67727947 456.62170792 C23.25292219 456.63937298 18.82896576 456.63831485 14.40460402 456.62281062 C12.81031518 456.62043962 11.21599834 456.62473161 9.6217522 456.63663927 C-3.72322938 456.73008167 -15.76394695 455.38811701 -25.65760899 445.63924026 C-31.85081318 438.23507435 -33.87835947 430.79774112 -33.88389969 421.29438019 C-33.88565273 420.61595786 -33.88740576 419.93753553 -33.88921192 419.23855495 C-33.89387119 416.96073972 -33.89140661 414.68298834 -33.888978 412.40517044 C-33.89084602 410.75734872 -33.89314668 409.10952745 -33.89584333 407.46170688 C-33.90196901 402.92974457 -33.90182683 398.39780069 -33.90064895 393.86583519 C-33.90044514 388.97954015 -33.90596188 384.09325105 -33.91070652 379.20695877 C-33.919018 369.63204179 -33.92176159 360.05713096 -33.9223189 350.48221067 C-33.92279385 342.69970139 -33.92484757 334.91719415 -33.92801952 327.13468552 C-33.9368277 305.07480483 -33.94143868 283.01492902 -33.94068905 260.95504656 C-33.94064909 259.76543986 -33.94060914 258.57583316 -33.94056797 257.35017776 C-33.94052709 256.15912016 -33.94048621 254.96806255 -33.94044409 253.74091229 C-33.94003764 234.43825387 -33.94960641 215.13561496 -33.96370634 195.83296219 C-33.97806639 176.0179916 -33.98497671 156.20303053 -33.98411256 136.38805461 C-33.98378045 125.26154173 -33.98653377 114.1350493 -33.99729061 103.00854111 C-34.00639076 93.53483755 -34.00857487 84.06116372 -34.00178119 74.58745769 C-33.99851345 69.75400117 -33.99846847 64.92060168 -34.00713444 60.08715057 C-34.01498916 55.66063257 -34.01357849 51.23421692 -34.00485031 46.80770144 C-34.00331305 45.20810466 -34.00513998 43.60850029 -34.01071038 42.00891247 C-34.05365234 28.80076717 -33.4459249 18.39843664 -24.08729649 8.33845901 C-20.00555961 4.55561363 -16.04821528 2.78005155 -10.75526524 1.13142776 C-10.15595977 0.94464628 -9.5566543 0.75786479 -8.93918806 0.56542325 C-5.93639846 -0.03129982 -3.06167721 0.00313656 0 0 Z M82.60410976 61.20564651 C80.76277602 62.70858945 78.90613578 64.15678734 77.01035976 65.58845901 C64.87616657 74.80493946 54.56540221 85.04528756 45.24473476 97.13142776 C44.56821865 98.00057816 44.56821865 98.00057816 43.87803555 98.88728714 C8.51494794 145.02009492 -4.34735575 204.51755439 2.76646328 261.69514847 C7.24637286 293.71107527 18.2033764 324.65121907 35.24473476 352.13142776 C37.53175327 351.2693535 37.53175327 351.2693535 38.25254726 348.49861526 C38.62121914 347.34619339 38.98989101 346.19377151 39.36973476 345.00642776 C43.07367263 334.06916756 48.30419979 323.80084923 55.79942226 314.96345901 C57.33124255 313.19061163 57.33124255 313.19061163 58.12754726 311.01814651 C59.68174013 308.39340822 61.41832088 308.22019039 64.24473476 307.13142776 C66.12313857 306.15095167 67.98672371 305.14180682 69.83848476 304.11189651 C70.93821621 303.50797073 72.03794765 302.90404495 73.1710043 302.28181839 C73.75319729 301.96188919 74.33539028 301.64195999 74.93522549 301.31233597 C83.31420347 296.71233443 91.67884061 292.26147231 100.47129726 288.49470901 C101.13671535 288.20798828 101.80213345 287.92126755 102.48771572 287.62585831 C105.70289797 286.2479759 108.92812648 284.9066616 112.17637539 283.60872269 C115.35869331 282.27074286 118.33657406 280.99227278 121.24473476 279.13142776 C122.69488573 275.60559386 122.69488573 275.60559386 123.24473476 272.13142776 C124.92362715 271.15868769 126.61079824 270.19426199 128.35459805 269.34334183 C132.17773678 266.89202942 134.28713058 262.77193224 136.68223476 259.00642776 C137.8121783 257.29229353 138.94497359 255.58003561 140.08067226 253.86970901 C140.89229824 252.64115189 140.89229824 252.64115189 141.7203207 251.38777542 C145.69818627 245.49997376 150.16476618 240.10023729 155.24473476 235.13142776 C154.16702345 231.99626758 152.80727468 229.45695695 150.93223476 226.75642776 C148.77095384 223.47378659 147.63226813 220.29511168 146.56748867 216.51790237 C144.50075104 209.0164942 144.50075104 209.0164942 139.05723476 203.69392776 C137.45920746 202.82832964 135.85469696 201.97461999 134.24473476 201.13142776 C126.29796698 195.92533742 121.0207012 190.37744826 118.24473476 181.13142776 C116.83623844 171.34392046 118.28775964 163.64680289 123.24473476 155.13142776 C122.54606289 155.07084183 121.84739101 155.01025589 121.12754726 154.94783401 C120.21746914 154.86404495 119.30739101 154.78025589 118.36973476 154.69392776 C117.01235195 154.57211136 117.01235195 154.57211136 115.62754726 154.44783401 C113.24473476 154.13142776 113.24473476 154.13142776 111.24473476 153.13142776 C110.91473476 152.14142776 110.58473476 151.15142776 110.24473476 150.13142776 C111.33785976 150.00767776 112.43098476 149.88392776 113.55723476 149.75642776 C117.31855279 149.37677976 117.31855279 149.37677976 120.24473476 147.13142776 C120.77141431 143.14371119 120.71892625 140.91566752 118.61973476 137.44392776 C116.28711934 135.00239394 116.28711934 135.00239394 113.18223476 133.25642776 C109.64062214 130.69441012 108.28445472 128.26703028 107.24473476 124.13142776 C106.74918873 120.80349606 106.4406836 117.48958545 106.24473476 114.13142776 C108.18614101 114.50642776 108.18614101 114.50642776 110.24473476 115.13142776 C110.55410976 115.79142776 110.86348476 116.45142776 111.18223476 117.13142776 C112.09131165 119.40167308 112.09131165 119.40167308 114.74473476 119.94392776 C117.24264432 120.34616267 117.24264432 120.34616267 119.24473476 119.13142776 C120.11979632 117.15466961 120.11979632 117.15466961 120.80723476 114.81892776 C121.05602383 114.03904495 121.30481289 113.25916214 121.56114101 112.45564651 C122.26761181 110.16303676 122.26761181 110.16303676 122.71739101 107.90877151 C123.24473476 106.13142776 123.24473476 106.13142776 125.11973476 105.00642776 C125.82098476 104.71767776 126.52223476 104.42892776 127.24473476 104.13142776 C128.23473476 103.47142776 129.22473476 102.81142776 130.24473476 102.13142776 C130.49504454 99.54762599 130.49504454 99.54762599 130.24473476 97.13142776 C125.68736213 97.56963667 122.66820032 97.98183946 119.24473476 101.13142776 C119.83866859 99.83502399 120.44531466 98.54443938 121.05723476 97.25642776 C121.39368008 96.53713089 121.73012539 95.81783401 122.07676601 95.07674026 C123.24473476 93.13142776 123.24473476 93.13142776 126.24473476 91.13142776 C126.06555508 90.4185762 125.88637539 89.70572464 125.70176601 88.97127151 C124.2803026 82.57037867 123.7850125 78.8152572 127.24473476 73.13142776 C127.90473476 72.80142776 128.56473476 72.47142776 129.24473476 72.13142776 C129.34785976 73.08017776 129.45098476 74.02892776 129.55723476 75.00642776 C129.93012771 78.42250277 129.93012771 78.42250277 133.24473476 80.13142776 C138.45957074 80.24607652 138.45957074 80.24607652 142.77207851 77.75642776 C143.96796494 76.2443039 145.10889046 74.68915709 146.24473476 73.13142776 C149.626672 72.00411535 152.43482464 71.95261538 155.99473476 71.81892776 C161.90918612 71.43360156 165.58799251 70.81350304 170.24473476 67.13142776 C170.57473476 66.14142776 170.90473476 65.15142776 171.24473476 64.13142776 C166.89260878 61.95536477 161.18362735 62.64172215 156.58457851 63.80330276 C154.44320121 64.52275124 152.33768876 65.2821131 150.24473476 66.13142776 C152.90334724 60.10523948 158.35553335 56.81904968 164.22520351 54.27205276 C170.95999347 52.21690037 178.38958728 52.65098092 184.61973476 55.88142776 C187.24473476 58.13142776 187.24473476 58.13142776 189.80723476 60.81892776 C192.55951471 63.43006515 193.48066887 64.13142776 197.24473476 64.13142776 C199.50017049 63.44310861 201.70216085 62.64170647 203.92051601 61.84236526 C211.15754628 59.62868542 219.28313662 61.37071748 226.05723476 64.38142776 C228.24473476 66.13142776 228.24473476 66.13142776 229.74473476 69.25642776 C232.90146778 72.88667073 234.30714525 72.66145364 238.99473476 73.00642776 C241.07734832 73.07523658 243.16099351 73.12540539 245.24473476 73.13142776 C245.40328945 73.85588089 245.56184414 74.58033401 245.72520351 75.32674026 C247.21996645 81.52050932 248.53244936 85.75573417 253.24473476 90.13142776 C257.4791185 92.64916945 261.45000763 92.28609638 266.24473476 92.13142776 C267.23473476 92.13142776 268.22473476 92.13142776 269.24473476 92.13142776 C268.2848291 97.54180512 268.2848291 97.54180512 267.24473476 100.13142776 C264.80723476 101.50642776 264.80723476 101.50642776 262.24473476 102.13142776 C260.75973476 103.12142776 260.75973476 103.12142776 259.24473476 104.13142776 C260.5945682 107.07120924 262.17151054 109.34660787 264.24473476 111.81892776 C266.58527198 114.83461995 267.6424582 117.05469925 268.24473476 120.81892776 C268.81756199 124.06494872 269.45245297 125.90591237 271.86973476 128.19392776 C276.15237675 130.6524815 278.3946652 130.54953721 283.24473476 130.13142776 C279.9958162 134.08803156 277.51151447 134.7794142 272.49473476 135.38142776 C271.32426601 135.53095901 270.15379726 135.68049026 268.94785976 135.83455276 C268.05582851 135.93252151 267.16379726 136.03049026 266.24473476 136.13142776 C267.29211805 142.45286743 267.29211805 142.45286743 271.36973476 147.13142776 C272.31848476 147.79142776 273.26723476 148.45142776 274.24473476 149.13142776 C270.71062156 151.25189569 267.30079641 151.66342065 263.24473476 152.13142776 C263.24473476 153.12142776 263.24473476 154.11142776 263.24473476 155.13142776 C263.86348476 155.17267776 264.48223476 155.21392776 265.11973476 155.25642776 C265.82098476 155.54517776 266.52223476 155.83392776 267.24473476 156.13142776 C268.36973476 158.88142776 268.36973476 158.88142776 269.24473476 162.13142776 C269.58504726 162.90744339 269.92535976 163.68345901 270.27598476 164.48299026 C273.07832366 172.14422323 271.36173817 180.14986303 268.60801601 187.56111526 C265.48423989 193.45064159 262.08042979 196.48851259 256.31797695 199.55379105 C249.28996071 203.28762813 249.28996071 203.28762813 244.45176601 209.38533401 C243.53326426 212.62070958 242.8705382 215.82904609 242.24473476 219.13142776 C240.2305443 224.19166856 237.3579301 228.68400585 234.24473476 233.13142776 C235.81018934 236.85911243 238.14586742 239.29661777 240.93223476 242.19392776 C245.08772938 246.61893973 248.37361093 251.24028468 251.52989101 256.41658401 C256.8369048 264.90984484 256.8369048 264.90984484 264.61973476 270.81892776 C265.48598476 271.25205276 266.35223476 271.68517776 267.24473476 272.13142776 C267.4703207 273.23615433 267.69590664 274.34088089 267.92832851 275.47908401 C268.91437034 279.40426153 268.91437034 279.40426153 272.56895351 281.17830276 C274.01372981 281.77014088 275.46924884 282.33615436 276.93223476 282.88142776 C278.57430909 283.55367965 280.21486501 284.22964904 281.85410976 284.90877151 C282.72873867 285.26439163 283.60336758 285.62001175 284.50450039 285.98640823 C296.91969784 291.17415557 309.04742781 297.23972672 320.74473476 303.88142776 C321.88253384 304.51625076 321.88253384 304.51625076 323.04331875 305.16389847 C330.80879702 309.68830076 336.33404543 315.43181195 340.80723476 323.19392776 C341.37401943 324.15685745 341.37401943 324.15685745 341.9522543 325.13924026 C345.64750298 331.56466631 348.49015805 338.25333317 351.24473476 345.13142776 C352.23341677 347.46979462 353.2382549 349.8006323 354.24473476 352.13142776 C384.8333377 313.63031555 393.24720331 253.43408467 388.05723476 206.13142776 C384.70172422 178.78321021 377.86129874 151.26988208 364.24473476 127.13142776 C363.68270351 126.10791214 363.12067226 125.08439651 362.54160976 124.02986526 C355.37438966 111.33651752 347.26014779 99.52899226 337.57530117 88.6382637 C336.30321067 87.19765039 335.06028036 85.73144462 333.81895351 84.26424026 C327.83184214 77.34623596 321.2290811 71.85349089 313.93369961 66.40730667 C312.40721924 65.25417189 310.91175835 64.06025308 309.42051601 62.86189651 C246.3011523 12.88864849 145.97533149 9.38895206 82.60410976 61.20564651 Z M162.30723476 118.31892776 C158.24209561 120.72482645 155.75527341 122.59981183 154.24473476 127.13142776 C154.14432104 128.4948768 154.0903149 129.86210929 154.06895351 131.22908401 C153.52265637 151.9381413 153.52265637 151.9381413 147.07285976 158.26033401 C144.31308563 162.59459467 145.16855341 166.24503928 145.80723476 171.19392776 C145.89553555 172.0917598 145.98383633 172.98959183 146.07481289 173.91463089 C146.50647152 178.8446824 146.50647152 178.8446824 148.76231289 183.11726761 C150.54795329 185.54340945 150.68155986 186.96527194 150.83457851 189.94783401 C150.89395596 190.87160843 150.9533334 191.79538284 151.01451015 192.74715042 C151.06985928 193.71958694 151.1252084 194.69202347 151.18223476 195.69392776 C152.4183316 211.75668774 157.24757279 222.5955344 168.99473476 234.06892776 C178.40476001 241.61173778 189.50998046 243.4840338 201.21397305 242.4092598 C213.47864772 240.73130839 222.04267611 233.52825937 229.61973476 224.19392776 C237.16057172 213.39391551 238.31608929 200.76932152 238.80332851 187.94392776 C239.24473476 185.13142776 239.24473476 185.13142776 240.73692226 183.33455276 C243.14475072 179.81637855 242.81821113 176.05143486 242.93223476 171.88142776 C242.96639492 171.04095901 243.00055508 170.20049026 243.03575039 169.33455276 C243.11797044 167.26730572 243.18303633 165.19938903 243.24473476 163.13142776 C242.51254726 163.12627151 241.78035976 163.12111526 241.02598476 163.11580276 C230.51617662 162.36510218 222.51079303 158.14622047 213.33457851 153.21052933 C212.33168789 152.67524612 211.32879726 152.13996292 210.29551601 151.58845901 C209.39486416 151.09321732 208.4942123 150.59797562 207.56626797 150.08772659 C205.15440363 148.79835818 205.15440363 148.79835818 202.24473476 150.13142776 C202.54508633 150.65091995 202.84543789 151.17041214 203.15489101 151.70564651 C206.22714406 157.33984617 206.22714406 157.33984617 206.30723476 160.94392776 C204.88786908 163.86615124 203.11556783 164.73281678 200.24473476 166.13142776 C199.86961758 164.7914473 199.86961758 164.7914473 199.48692226 163.42439651 C196.53197197 155.59099055 189.19755256 150.02826149 183.05723476 144.56892776 C175.01219787 137.33103888 170.97329112 131.26079262 168.98301601 120.53767776 C168.7393832 119.74361526 168.49575039 118.94955276 168.24473476 118.13142776 C165.23238906 116.76690466 165.23238906 116.76690466 162.30723476 118.31892776 Z M127.49473476 166.06892776 C125.00004888 170.18515947 124.77074292 174.09420455 125.83457851 178.66658401 C127.98689749 184.79099379 130.92562086 188.45586029 136.24473476 192.13142776 C136.97556136 190.30544609 136.97556136 190.30544609 137.24473476 188.13142776 C136.28006522 186.35279996 136.28006522 186.35279996 134.80723476 184.75642776 C132.84079168 182.19675604 132.25295371 181.178915 131.68223476 177.88142776 C132.24473476 175.13142776 132.24473476 175.13142776 134.24473476 173.25642776 C134.90473476 172.88517776 135.56473476 172.51392776 136.24473476 172.13142776 C135.58473476 170.15142776 134.92473476 168.17142776 134.24473476 166.13142776 C130.79790647 165.03529434 130.79790647 165.03529434 127.49473476 166.06892776 Z M256.24473476 165.13142776 C255.58473476 165.79142776 254.92473476 166.45142776 254.24473476 167.13142776 C254.63351664 170.14448734 255.5093035 171.52828088 257.24473476 174.13142776 C257.80723476 176.81892776 257.80723476 176.81892776 257.24473476 180.13142776 C255.54927791 182.28774446 253.74430236 184.1943473 251.77598476 186.10408401 C249.88013213 188.61415421 249.94652197 190.05877098 250.24473476 193.13142776 C256.11722665 190.52143137 259.83691205 187.17013283 262.52207851 181.35408401 C263.97690205 176.87951864 264.10211427 172.31735929 262.37754726 167.92049026 C261.34168542 165.8750463 261.34168542 165.8750463 258.74473476 165.25642776 C257.91973476 165.21517776 257.09473476 165.17392776 256.24473476 165.13142776 Z M165.24473476 243.13142776 C164.87604076 244.50260381 164.52553624 245.87867484 164.18223476 247.25642776 C163.9850082 248.02213089 163.78778164 248.78783401 163.58457851 249.57674026 C162.87638718 254.90038546 164.12311833 258.53511622 167.30723476 262.75642776 C167.94403164 263.62654495 168.58082851 264.49666214 169.23692226 265.39314651 C170.23078945 266.74859573 170.23078945 266.74859573 171.24473476 268.13142776 C175.06038804 273.67476954 178.73791414 279.29300799 182.27989101 285.01424026 C182.81074306 285.86832474 183.34159512 286.72240921 183.88853359 287.60237503 C184.94339885 289.30436542 185.99164095 291.01048212 187.03257656 292.72102737 C187.52024502 293.50743607 188.00791348 294.29384476 188.51035976 295.10408401 C188.9412289 295.80799271 189.37209805 296.5119014 189.81602383 297.23714066 C191.39664745 299.33284446 193.08538985 300.65775844 195.24473476 302.13142776 C198.14104943 298.65218193 200.55726848 295.10612173 202.86973476 291.21736526 C205.80829434 286.34777474 208.91056776 281.63489179 212.18223476 276.98299026 C212.59731289 276.38887344 213.01239101 275.79475662 213.44004726 275.18263626 C215.13960524 272.75111405 216.84074228 270.3213009 218.56651211 267.90828323 C219.84938867 266.10996944 221.11090009 264.29818378 222.36973476 262.48299026 C223.11481289 261.4293428 223.85989101 260.37569534 224.62754726 259.29011917 C227.08461503 254.49097322 226.7230245 250.77554873 225.24473476 245.69392776 C224.74973476 244.42549026 224.74973476 244.42549026 224.24473476 243.13142776 C219.51746994 244.99974015 214.851874 247.00310389 210.18223476 249.01033401 C198.24673937 253.56550314 184.81535065 251.80387292 173.24473476 247.13142776 C170.49370997 245.89950138 167.88982176 244.58363239 165.24473476 243.13142776 Z M236.24473476 248.13142776 C236.20477383 248.67927933 236.16481289 249.22713089 236.12364101 249.79158401 C234.93351728 258.82770866 230.13404083 265.66797661 225.24473476 273.13142776 C224.8638168 273.71343948 224.48289883 274.2954512 224.09043789 274.89509964 C222.40386645 277.45904392 220.69815453 280.00850242 218.97129726 282.54549026 C215.6123877 286.98867828 215.6123877 286.98867828 214.24473476 292.13142776 C213.58473476 292.13142776 212.92473476 292.13142776 212.24473476 292.13142776 C209.76973476 296.58642776 209.76973476 296.58642776 207.24473476 301.13142776 C208.81223476 301.00767776 210.37973476 300.88392776 211.99473476 300.75642776 C213.31731289 300.6520137 213.31731289 300.6520137 214.66660976 300.54549026 C217.37285464 300.11085094 218.94372146 299.60671183 221.24473476 298.13142776 C222.59872626 295.96798012 222.59872626 295.96798012 223.60801601 293.33845901 C224.02905605 292.35055374 224.45009609 291.36264847 224.88389492 290.34480667 C225.55751064 288.75418411 225.55751064 288.75418411 226.24473476 287.13142776 C227.25036902 284.94381893 228.26492035 282.76029035 229.28770351 280.58064651 C229.80397305 279.47011917 230.32024258 278.35959183 230.85215664 277.21541214 C231.91509705 274.93055012 232.9802407 272.64671192 234.04746914 270.36384964 C234.55987148 269.25976761 235.07227383 268.15568558 235.60020351 267.01814651 C236.06064053 266.03032181 236.52107754 265.0424971 236.99546719 264.02473831 C239.5754466 258.68763017 239.5754466 258.68763017 239.78379726 253.01424026 C239.48215664 252.43416214 239.18051601 251.85408401 238.86973476 251.25642776 C238.33348476 250.22517776 237.79723476 249.19392776 237.24473476 248.13142776 C236.91473476 248.13142776 236.58473476 248.13142776 236.24473476 248.13142776 Z M151.24473476 251.13142776 C149.47018759 253.74105597 149.23927958 255.06082515 149.4859457 258.25325394 C150.34605718 262.64928705 151.74584534 266.49261691 153.44785976 270.61970901 C153.76752712 271.40411865 154.08719448 272.18852829 154.41654873 272.99670792 C155.09143458 274.64308844 155.77072977 276.28766771 156.45420742 277.93050003 C157.49581972 280.44654851 158.50921822 282.97283205 159.52207851 285.50056839 C160.18314221 287.10348273 160.84584634 288.70572173 161.51035976 290.30720901 C161.80952297 291.06238312 162.10868618 291.81755722 162.41691494 292.59561539 C163.79743439 295.84329419 164.69057512 297.81080494 167.797225 299.60823441 C170.62207386 300.21208988 173.16991327 300.32600178 176.05723476 300.25642776 C177.03305508 300.23838089 178.00887539 300.22033401 179.01426601 300.20174026 C179.7503207 300.17853714 180.48637539 300.15533401 181.24473476 300.13142776 C180.8206332 299.46498245 180.39653164 298.79853714 179.95957851 298.11189651 C178.71436556 296.1551333 177.46961277 294.1980772 176.22520351 292.24080276 C175.02291687 290.35318902 173.81793173 288.46728557 172.60801601 286.58455276 C155.38091235 259.72195043 155.38091235 259.72195043 151.24473476 251.13142776 Z " fill="#BC7257" transform="translate(54.75526523590088,21.868572235107422)"/>
<path d="M0 0 C2.625 2.25 2.625 2.25 5.1875 4.9375 C7.93977994 7.54863738 8.8609341 8.25 12.625 8.25 C14.88043572 7.56168084 17.08242608 6.7602787 19.30078125 5.9609375 C25.63158817 4.02445538 32.43537295 5.2211778 38.625 7.25 C44.17440711 10.23023715 44.17440711 10.23023715 45.8125 13.9375 C47.40525008 16.50230828 47.40525008 16.50230828 50.14453125 16.68359375 C52.10423711 16.80944642 54.06768452 16.88767049 56.03125 16.9140625 C58.625 17.25 58.625 17.25 60.34375 18.4296875 C62.5307974 21.53689509 63.40539334 25.06921935 64.5625 28.65625 C65.98926998 32.1392473 67.5430506 33.66265604 70.8125 35.4375 C75.49595018 36.79049672 79.95771163 36.80576279 84.625 35.25 C85.82910684 38.09607071 85.61996902 39.26509295 84.625 42.25 C82.05355559 46.10716662 79.74971116 47.22655679 75.625 49.25 C76.97483344 52.18978148 78.55177577 54.46518011 80.625 56.9375 C82.97041535 59.96110774 84.04792739 62.23086824 84.6875 66 C85.26128617 69.2310289 85.53452035 70.14355335 87.75 72.75 C91.48962459 74.70110848 94.42719475 74.96540303 98.625 75.25 C98 77.125 98 77.125 96.625 79.25 C91.7256606 81.63992166 86.94449029 81.46277961 81.625 81.25 C83.75484211 86.81852575 85.41039349 90.91844584 90.625 94.25 C86.52042386 97.23514628 83.64754631 97.5454439 78.625 97.25 C78.625 98.24 78.625 99.23 78.625 100.25 C79.22828125 100.31574219 79.8315625 100.38148438 80.453125 100.44921875 C83.54159059 101.58795157 84.00862014 103.11466198 85.375 106.0625 C88.79613261 114.24991642 88.72265391 121.66477845 86 130.0625 C81.57554568 140.65391632 73.32462823 145.76597943 63.625 151.25 C62.965 151.25 62.305 151.25 61.625 151.25 C61.563125 152.343125 61.50125 153.43625 61.4375 154.5625 C60.41660019 162.6865619 56.15641889 170.00496517 51.34765625 176.49609375 C50.40676596 178.25441264 50.40676596 178.25441264 51.203125 180.15625 C53.00467233 182.80907794 55.08942046 185.00090581 57.3125 187.3125 C61.48518161 191.81491938 64.78689384 196.37529789 67.9765625 201.6015625 C72.13816128 208.28773305 75.49937686 212.77004452 82.625 216.25 C83.88356459 219.05316658 84.625 221.17905367 84.625 224.25 C85.44786499 224.45302734 85.44786499 224.45302734 86.28735352 224.66015625 C94.50308056 226.88950759 101.95707518 230.51257095 109.5625 234.25 C110.58405685 234.74888229 110.58405685 234.74888229 111.62625122 235.25784302 C139.24726236 248.76678617 156.62897442 260.48963554 167.625 290.25 C169.44188415 295.72397881 170.89563508 301.30265715 172.375 306.875 C172.79869125 308.44111616 173.22343809 310.00694708 173.64916992 311.57250977 C174.30997022 314.00416062 174.96971959 316.43606119 175.62541199 318.86909485 C177.15484698 324.54367485 178.72306509 330.20633237 180.31640625 335.86328125 C192.625 379.60450411 192.625 379.60450411 192.625 385.25 C72.505 385.25 -47.615 385.25 -171.375 385.25 C-170.24970691 375.12236217 -170.24970691 375.12236217 -168.95703125 370.421875 C-168.67545166 369.38627441 -168.39387207 368.35067383 -168.10375977 367.28369141 C-167.80139404 366.20007324 -167.49902832 365.11645508 -167.1875 364 C-166.87288818 362.85321777 -166.55827637 361.70643555 -166.23413086 360.52490234 C-163.62510895 351.05034484 -160.9388967 341.59806999 -158.21240234 332.15673828 C-156.54770697 326.37835253 -154.90064106 320.59491272 -153.25 314.8125 C-152.28286901 311.42718166 -151.31560606 308.04192424 -150.34375 304.65795898 C-149.67538285 302.30671477 -149.01990779 299.9517808 -148.375 297.59399414 C-146.55412232 291.00169354 -144.62364837 284.71537261 -141.625 278.5625 C-141.28500977 277.8519043 -140.94501953 277.14130859 -140.59472656 276.40917969 C-137.51965245 270.17714244 -133.74719391 264.65094541 -129.375 259.25 C-128.58609375 258.04537109 -128.58609375 258.04537109 -127.78125 256.81640625 C-124.16352796 252.95789426 -119.77818337 250.87357142 -115.125 248.4375 C-114.13717529 247.91051514 -113.14935059 247.38353027 -112.1315918 246.84057617 C-103.95063775 242.49699446 -95.71154041 238.2860676 -87.375 234.25 C-86.56804687 233.85619141 -85.76109375 233.46238281 -84.9296875 233.05664062 C-82.35249256 231.80113403 -79.77086117 230.55526356 -77.1875 229.3125 C-76.38481689 228.92231689 -75.58213379 228.53213379 -74.75512695 228.13012695 C-70.98245514 226.33256687 -67.56981983 224.77960651 -63.375 224.25 C-63.33375 223.1775 -63.2925 222.105 -63.25 221 C-62.375 217.25 -62.375 217.25 -59.4375 214.8125 C-56.375 213.25 -56.375 213.25 -54.375 213.25 C-54.01148438 212.19232422 -54.01148438 212.19232422 -53.640625 211.11328125 C-52.18179946 207.81291358 -50.32682115 205.29462506 -48.125 202.4375 C-47.31376535 201.37763228 -46.50256751 200.31773639 -45.69140625 199.2578125 C-44.92699219 198.26523437 -44.16257812 197.27265625 -43.375 196.25 C-42.26827228 194.77274856 -41.16368414 193.29388838 -40.0625 191.8125 C-39.16722133 190.62458177 -38.27144624 189.43703738 -37.375 188.25 C-36.6325 187.26 -35.89 186.27 -35.125 185.25 C-34.5475 184.59 -33.97 183.93 -33.375 183.25 C-32.715 183.25 -32.055 183.25 -31.375 183.25 C-30.57916457 180.98798941 -30.57916457 180.98798941 -30.375 178.25 C-31.61051584 175.78099346 -31.61051584 175.78099346 -33.5 173.375 C-36.59808693 168.89188598 -38.23536731 164.71450486 -39.625 159.5 C-41.14202607 154.17684615 -42.85255497 151.20284126 -47.6875 148.25 C-49.57852839 147.24094318 -51.47416644 146.24046243 -53.375 145.25 C-60.45440955 140.46170073 -64.78281735 134.41301883 -67.375 126.25 C-68.74414005 116.77436889 -67.65893684 109.27026128 -62.375 101.25 C-63.29732422 101.17652344 -63.29732422 101.17652344 -64.23828125 101.1015625 C-65.04652344 101.02679688 -65.85476562 100.95203125 -66.6875 100.875 C-67.48800781 100.80539063 -68.28851563 100.73578125 -69.11328125 100.6640625 C-71.375 100.25 -71.375 100.25 -74.375 98.25 C-74.375 97.26 -74.375 96.27 -74.375 95.25 C-71.405 94.26 -68.435 93.27 -65.375 92.25 C-64.95479269 87.96388541 -64.78555033 85.97418102 -67.5625 82.5625 C-69.32956692 81.10957831 -71.13843338 79.70469044 -73 78.375 C-76.7965872 74.97805356 -78.22070319 71.54768075 -78.5546875 66.57421875 C-78.56161726 64.1245502 -78.50786746 61.69574538 -78.375 59.25 C-75.46801392 59.82414486 -74.54027433 60.07406281 -72.4375 62.3125 C-70.50926482 64.52240386 -70.50926482 64.52240386 -67.625 64.5 C-66.8825 64.4175 -66.14 64.335 -65.375 64.25 C-65.271875 63.21875 -65.16875 62.1875 -65.0625 61.125 C-64.35984811 57.16459842 -63.54774047 54.62149383 -61.375 51.25 C-59.828125 50.2290625 -59.828125 50.2290625 -58.25 49.1875 C-55.15134082 47.53182505 -55.15134082 47.53182505 -54.5 44.5 C-54.45875 43.7575 -54.4175 43.015 -54.375 42.25 C-58.24148272 43.29097612 -61.86961443 44.28698408 -65.375 46.25 C-63.45777831 38.43363463 -63.45777831 38.43363463 -60.375 36.25 C-59.715 36.25 -59.055 36.25 -58.375 36.25 C-58.91125 35.115625 -59.4475 33.98125 -60 32.8125 C-61.60328721 28.54973165 -61.29244282 25.51055951 -60.30859375 21.1328125 C-59.10910014 18.71375007 -57.84297484 18.20892683 -55.375 17.25 C-54.385 20.22 -54.385 20.22 -53.375 23.25 C-48.76957624 24.20913538 -48.76957624 24.20913538 -44.1875 23.625 C-41.8117487 21.82270591 -40.22481841 19.5771909 -38.375 17.25 C-34.99306277 16.12268759 -32.18491012 16.07118761 -28.625 15.9375 C-22.70123745 15.55769309 -19.07866267 14.85978763 -14.375 11.25 C-14.045 10.59 -13.715 9.93 -13.375 9.25 C-20.73759293 9.02575859 -27.24549629 9.34879901 -34.375 11.25 C-33.64377609 6.90952989 -31.65540439 5.3279511 -28.34375 2.640625 C-20.08216307 -3.19494037 -9.09972447 -4.71837565 0 0 Z M-22.3125 63.4375 C-26.37763916 65.84339869 -28.86446135 67.71838406 -30.375 72.25 C-30.47541373 73.61344904 -30.52941987 74.98068153 -30.55078125 76.34765625 C-31.09707839 97.05671353 -31.09707839 97.05671353 -37.546875 103.37890625 C-40.30664913 107.71316691 -39.45118135 111.36361152 -38.8125 116.3125 C-38.72419922 117.21033203 -38.63589844 118.10816406 -38.54492188 119.03320312 C-38.11326325 123.96325463 -38.11326325 123.96325463 -35.85742188 128.23583984 C-34.07178148 130.66198169 -33.9381749 132.08384418 -33.78515625 135.06640625 C-33.72577881 135.99018066 -33.66640137 136.91395508 -33.60522461 137.86572266 C-33.54987549 138.83815918 -33.49452637 139.8105957 -33.4375 140.8125 C-32.20140316 156.87525998 -27.37216197 167.71410663 -15.625 179.1875 C-6.21497476 186.73031002 4.89024569 188.60260603 16.59423828 187.52783203 C28.85891295 185.84988063 37.42294135 178.64683161 45 169.3125 C52.54083696 158.51248775 53.69635453 145.88789376 54.18359375 133.0625 C54.625 130.25 54.625 130.25 56.1171875 128.453125 C58.52501595 124.93495078 58.19847637 121.1700071 58.3125 117 C58.34666016 116.15953125 58.38082031 115.3190625 58.41601562 114.453125 C58.49823568 112.38587796 58.56330157 110.31796126 58.625 108.25 C57.8928125 108.24484375 57.160625 108.2396875 56.40625 108.234375 C45.89644185 107.48367442 37.89105826 103.2647927 28.71484375 98.32910156 C27.71195312 97.79381836 26.7090625 97.25853516 25.67578125 96.70703125 C24.77512939 96.21178955 23.87447754 95.71654785 22.9465332 95.20629883 C20.53466887 93.91693041 20.53466887 93.91693041 17.625 95.25 C17.92535156 95.76949219 18.22570312 96.28898437 18.53515625 96.82421875 C21.6074093 102.45841841 21.6074093 102.45841841 21.6875 106.0625 C20.26813431 108.98472347 18.49583307 109.85138902 15.625 111.25 C15.24988281 109.91001953 15.24988281 109.91001953 14.8671875 108.54296875 C11.91223721 100.70956278 4.57781779 95.14683372 -1.5625 89.6875 C-9.60753689 82.44961112 -13.64644365 76.37936485 -15.63671875 65.65625 C-15.88035156 64.8621875 -16.12398437 64.068125 -16.375 63.25 C-19.3873457 61.88547689 -19.3873457 61.88547689 -22.3125 63.4375 Z M-57.125 111.1875 C-59.61968588 115.30373171 -59.84899184 119.21277678 -58.78515625 123.78515625 C-56.63283728 129.90956603 -53.69411391 133.57443253 -48.375 137.25 C-47.6441734 135.42401832 -47.6441734 135.42401832 -47.375 133.25 C-48.33966955 131.47137219 -48.33966955 131.47137219 -49.8125 129.875 C-51.77894308 127.31532828 -52.36678105 126.29748724 -52.9375 123 C-52.375 120.25 -52.375 120.25 -50.375 118.375 C-49.715 118.00375 -49.055 117.6325 -48.375 117.25 C-49.035 115.27 -49.695 113.29 -50.375 111.25 C-53.82182829 110.15386658 -53.82182829 110.15386658 -57.125 111.1875 Z M71.625 110.25 C70.965 110.91 70.305 111.57 69.625 112.25 C70.01378188 115.26305957 70.88956874 116.64685311 72.625 119.25 C73.1875 121.9375 73.1875 121.9375 72.625 125.25 C70.92954315 127.40631669 69.1245676 129.31291953 67.15625 131.22265625 C65.26039737 133.73272644 65.32678721 135.17734322 65.625 138.25 C71.49749189 135.64000361 75.21717729 132.28870507 77.90234375 126.47265625 C79.35716729 121.99809088 79.4823795 117.43593153 77.7578125 113.0390625 C76.72195065 110.99361853 76.72195065 110.99361853 74.125 110.375 C73.3 110.33375 72.475 110.2925 71.625 110.25 Z M-19.375 188.25 C-19.743694 189.62117605 -20.09419853 190.99724707 -20.4375 192.375 C-20.63472656 193.14070312 -20.83195313 193.90640625 -21.03515625 194.6953125 C-21.74334758 200.0189577 -20.49661644 203.65368846 -17.3125 207.875 C-16.67570313 208.74511719 -16.03890625 209.61523438 -15.3828125 210.51171875 C-14.38894531 211.86716797 -14.38894531 211.86716797 -13.375 213.25 C-9.55934672 218.79334178 -5.88182063 224.41158023 -2.33984375 230.1328125 C-1.8089917 230.98689697 -1.27813965 231.84098145 -0.73120117 232.72094727 C0.32366409 234.42293765 1.37190618 236.12905436 2.4128418 237.83959961 C2.90051025 238.6260083 3.38817871 239.41241699 3.890625 240.22265625 C4.32149414 240.92656494 4.75236328 241.63047363 5.19628906 242.35571289 C6.77691269 244.4514167 8.46565508 245.77633068 10.625 247.25 C13.52131467 243.77075416 15.93753372 240.22469396 18.25 236.3359375 C21.18855958 231.46634697 24.29083299 226.75346402 27.5625 222.1015625 C27.97757813 221.50744568 28.39265625 220.91332886 28.8203125 220.3012085 C30.51987047 217.86968629 32.22100751 215.43987313 33.94677734 213.02685547 C35.22965391 211.22854168 36.49116533 209.41675602 37.75 207.6015625 C38.49507812 206.54791504 39.24015625 205.49426758 40.0078125 204.40869141 C42.46488027 199.60954546 42.10328974 195.89412097 40.625 190.8125 C40.13 189.5440625 40.13 189.5440625 39.625 188.25 C34.89773518 190.11831238 30.23213923 192.12167612 25.5625 194.12890625 C13.6270046 198.68407537 0.19561588 196.92244516 -11.375 192.25 C-14.1260248 191.01807362 -16.729913 189.70220463 -19.375 188.25 Z M51.625 193.25 C51.58503906 193.79785156 51.54507813 194.34570312 51.50390625 194.91015625 C50.31378252 203.94628089 45.51430607 210.78654885 40.625 218.25 C40.24408203 218.83201172 39.86316406 219.41402344 39.47070312 220.01367188 C37.78413168 222.57761616 36.07841977 225.12707466 34.3515625 227.6640625 C30.99265294 232.10725052 30.99265294 232.10725052 29.625 237.25 C28.965 237.25 28.305 237.25 27.625 237.25 C25.15 241.705 25.15 241.705 22.625 246.25 C24.1925 246.12625 25.76 246.0025 27.375 245.875 C28.69757813 245.77058594 28.69757813 245.77058594 30.046875 245.6640625 C32.75311988 245.22942317 34.3239867 244.72528406 36.625 243.25 C37.9789915 241.08655235 37.9789915 241.08655235 38.98828125 238.45703125 C39.40932129 237.46912598 39.83036133 236.4812207 40.26416016 235.46337891 C40.93777588 233.87275635 40.93777588 233.87275635 41.625 232.25 C42.63063425 230.06239117 43.64518559 227.87886259 44.66796875 225.69921875 C45.18423828 224.58869141 45.70050781 223.47816406 46.23242188 222.33398438 C47.29536228 220.04912236 48.36050594 217.76528416 49.42773438 215.48242188 C49.94013672 214.37833984 50.45253906 213.27425781 50.98046875 212.13671875 C51.44090576 211.14889404 51.90134277 210.16106934 52.37573242 209.14331055 C54.95571184 203.80620241 54.95571184 203.80620241 55.1640625 198.1328125 C54.86242187 197.55273438 54.56078125 196.97265625 54.25 196.375 C53.71375 195.34375 53.1775 194.3125 52.625 193.25 C52.295 193.25 51.965 193.25 51.625 193.25 Z M-33.375 196.25 C-35.14954718 198.8596282 -35.38045518 200.17939739 -35.13378906 203.37182617 C-34.27367758 207.76785928 -32.87388942 211.61118915 -31.171875 215.73828125 C-30.85220764 216.52269089 -30.53254028 217.30710052 -30.20318604 218.11528015 C-29.52830019 219.76166067 -28.84900499 221.40623995 -28.16552734 223.04907227 C-27.12391505 225.56512074 -26.11051655 228.09140429 -25.09765625 230.61914062 C-24.43659256 232.22205497 -23.77388842 233.82429397 -23.109375 235.42578125 C-22.81021179 236.18095535 -22.51104858 236.93612946 -22.20281982 237.71418762 C-20.82230037 240.96186643 -19.92915964 242.92937717 -16.82250977 244.72680664 C-13.99766091 245.33066211 -11.44982149 245.44457401 -8.5625 245.375 C-7.58667969 245.35695313 -6.61085937 245.33890625 -5.60546875 245.3203125 C-4.86941406 245.29710937 -4.13335937 245.27390625 -3.375 245.25 C-3.79910156 244.58355469 -4.22320312 243.91710937 -4.66015625 243.23046875 C-5.90536921 241.27370553 -7.150122 239.31664944 -8.39453125 237.359375 C-9.59681789 235.47176125 -10.80180304 233.5858578 -12.01171875 231.703125 C-29.23882242 204.84052267 -29.23882242 204.84052267 -33.375 196.25 Z " fill="#000926" transform="translate(239.375,76.75)"/>
<path d="M0 0 C2.625 2.25 2.625 2.25 5.1875 4.9375 C7.93977994 7.54863738 8.8609341 8.25 12.625 8.25 C14.88043572 7.56168084 17.08242608 6.7602787 19.30078125 5.9609375 C25.57866854 4.04064257 32.48788489 5.18731816 38.625 7.25 C39.615 8.24 39.615 8.24 40.625 9.25 C38.625 10.25 38.625 10.25 35.625 9.3125 C28.38353242 7.09480055 21.74799249 8.05831 14.625 10.25 C11.6875 10.8125 11.6875 10.8125 8.625 10.25 C6.40655624 8.62850389 4.44015228 6.87754242 2.45703125 4.9765625 C-2.40611735 0.39338194 -6.3951807 0.95698957 -12.78515625 1.0625 C-19.85826926 1.43193354 -25.11806685 2.16264533 -30.375 7.25 C-29.55 7.085 -28.725 6.92 -27.875 6.75 C-17.78676471 5.30882353 -17.78676471 5.30882353 -13.375 8.25 C-14.47199219 8.38277344 -15.56898438 8.51554687 -16.69921875 8.65234375 C-18.15365801 8.83062985 -19.60808442 9.0090208 -21.0625 9.1875 C-21.78373047 9.27451172 -22.50496094 9.36152344 -23.24804688 9.45117188 C-26.99510584 9.91313805 -30.68292911 10.44167679 -34.375 11.25 C-33.64377609 6.90952989 -31.65540439 5.3279511 -28.34375 2.640625 C-20.08216307 -3.19494037 -9.09972447 -4.71837565 0 0 Z " fill="#080617" transform="translate(239.375,76.75)"/>
<path d="M0 0 C3.90717328 1.30239109 5.24556625 3.68750973 7.5 6.9375 C8.14932495 7.86163696 8.14932495 7.86163696 8.81176758 8.80444336 C31 40.83381413 31 40.83381413 31 48 C30.34 48 29.68 48 29 48 C28.53851563 47.030625 28.07703125 46.06125 27.6015625 45.0625 C20.94660369 31.29840181 13.23585332 18.50155531 3.8125 6.453125 C2.25562751 4.34597862 1.06840634 2.38165581 0 0 Z " fill="#B16557" transform="translate(395,113)"/>
<path d="M0 0 C0.33 0 0.66 0 1 0 C0.66666667 3 0.33333333 6 0 9 C-0.07476562 10.28132813 -0.14953125 11.56265625 -0.2265625 12.8828125 C-0.92726116 19.16824244 -3.13841005 25.03013019 -5.23803711 30.95922852 C-5.94330848 32.95392797 -6.6317676 34.95388154 -7.31835938 36.95507812 C-10.71696485 46.71696485 -10.71696485 46.71696485 -13 49 C-12.39938866 43.06595993 -10.69282435 37.90987074 -8.6875 32.3125 C-5.52423789 23.22601745 -3.4157575 14.19482952 -1.7265625 4.734375 C-1 1 -1 1 0 0 Z " fill="#AC6958" transform="translate(441,290)"/>
<path d="M0 0 C1.1875 1.625 1.1875 1.625 2 4 C0.69112915 8.18838671 -0.96212773 10.23972565 -4.6875 12.375 C-5.780625 12.91125 -6.87375 13.4475 -8 14 C-6.25072196 17.80425515 -3.87691793 20.77277038 -1.2421875 24 C0 26 0 26 0 30 C-0.66 30 -1.32 30 -2 30 C-2.33 28.02 -2.66 26.04 -3 24 C-3.66 24 -4.32 24 -5 24 C-5.37125 23.1028125 -5.37125 23.1028125 -5.75 22.1875 C-7.16370012 19.71352479 -8.65055383 18.56629745 -11 17 C-10.62750557 14.34096284 -10.27214211 13.23924581 -8.22265625 11.4375 C-7.50980469 10.963125 -6.79695313 10.48875 -6.0625 10 C-2.99313766 7.95004475 -1.41548058 6.43865439 0 3 C-0.62648438 3.09539062 -1.25296875 3.19078125 -1.8984375 3.2890625 C-3.12433594 3.45535156 -3.12433594 3.45535156 -4.375 3.625 C-5.18710937 3.74101563 -5.99921875 3.85703125 -6.8359375 3.9765625 C-7.55007813 3.98429687 -8.26421875 3.99203125 -9 4 C-9.66 3.34 -10.32 2.68 -11 2 C-10.06027344 1.90912109 -10.06027344 1.90912109 -9.1015625 1.81640625 C-7.87566406 1.69072266 -7.87566406 1.69072266 -6.625 1.5625 C-5.81289063 1.48128906 -5.00078125 1.40007812 -4.1640625 1.31640625 C-1.95727195 1.10909886 -1.95727195 1.10909886 0 0 Z " fill="#080618" transform="translate(323,112)"/>
<path d="M0 0 C7.37297297 2.17837838 7.37297297 2.17837838 10 5 C10.75 8.6875 10.75 8.6875 11 12 C11.57105469 12.14695312 12.14210938 12.29390625 12.73046875 12.4453125 C20.20661579 14.51343585 27.03008218 17.62428745 34 21 C33.01 21.66 32.02 22.32 31 23 C28.08203125 22.1015625 28.08203125 22.1015625 24.8125 20.625 C23.72582031 20.14289063 22.63914062 19.66078125 21.51953125 19.1640625 C20.68808594 18.77992188 19.85664063 18.39578125 19 18 C19 17.34 19 16.68 19 16 C18.278125 15.896875 17.55625 15.79375 16.8125 15.6875 C13.61181796 14.90511106 11.59862111 14.03675709 9 12 C8.71125 11.01 8.4225 10.02 8.125 9 C7.33596125 5.97643303 7.33596125 5.97643303 5.328125 4.9453125 C3.58492156 4.21316705 1.79368773 3.59789591 0 3 C0 2.01 0 1.02 0 0 Z " fill="#080715" transform="translate(313,289)"/>
<path d="M0 0 C0.33 0 0.66 0 1 0 C1.27607755 4.56129933 0.74914843 7.17295866 -1.59765625 11.08203125 C-2.15259766 12.01466797 -2.70753906 12.94730469 -3.27929688 13.90820312 C-3.86775391 14.86662109 -4.45621094 15.82503906 -5.0625 16.8125 C-5.90458008 18.23272461 -5.90458008 18.23272461 -6.76367188 19.68164062 C-10.4475884 25.79904716 -14.4823967 31.47144052 -19 37 C-19.33 36.34 -19.66 35.68 -20 35 C-19.00390625 32.6171875 -19.00390625 32.6171875 -17.5625 29.875 C-17.08941406 28.96492188 -16.61632812 28.05484375 -16.12890625 27.1171875 C-15.57009766 26.06917969 -15.57009766 26.06917969 -15 25 C-14.01 25 -13.02 25 -12 25 C-11.62875 23.69869141 -11.62875 23.69869141 -11.25 22.37109375 C-9.91914912 18.78195529 -8.22126588 16.16982231 -6 13.0625 C-2.99850124 8.6961893 -0.94609438 5.20351908 0 0 Z " fill="#070514" transform="translate(290,272)"/>
<path d="M0 0 C1.12588014 0.95729916 2.2506715 1.91587895 3.375 2.875 C4.00148438 3.40867188 4.62796875 3.94234375 5.2734375 4.4921875 C6.55836651 5.61432007 7.79371975 6.79371975 9 8 C4.89542386 10.98514628 2.02254631 11.2954439 -3 11 C-3 11.99 -3 12.98 -3 14 C-2.401875 14.04125 -1.80375 14.0825 -1.1875 14.125 C1 15 1 15 2.8125 17.8125 C4.0451684 21.1212415 4.01205993 21.82612499 3 25 C2.67386719 24.38511719 2.34773438 23.77023438 2.01171875 23.13671875 C1.35623047 21.92435547 1.35623047 21.92435547 0.6875 20.6875 C0.25824219 19.88699219 -0.17101562 19.08648437 -0.61328125 18.26171875 C-1.90059554 16.16212728 -3.18406708 14.64552279 -5 13 C-4.34 11.68 -3.68 10.36 -3 9 C-0.36 9 2.28 9 5 9 C5 8.34 5 7.68 5 7 C4.01 7 3.02 7 2 7 C0.5393715 4.35261084 0 3.10551666 0 0 Z " fill="#050417" transform="translate(321,163)"/>
<path d="M0 0 C2.86094301 0.57099902 3.83861179 0.83340572 5.9375 3 C8.30854261 5.29919283 9.77231982 5.64136887 13 6 C13 6.33 13 6.66 13 7 C9.37 7 5.74 7 2 7 C4.01754924 13.57188074 4.01754924 13.57188074 9 18 C9 18.66 9 19.32 9 20 C6.29073445 19.39794099 4.51165418 18.65387116 2.77734375 16.4375 C-0.28049174 11.00134801 -0.4521734 6.12946158 0 0 Z " fill="#08061A" transform="translate(161,136)"/>
<path d="M0 0 C0.33 0 0.66 0 1 0 C0.91228454 2.68893267 0.80532075 5.37485308 0.6875 8.0625 C0.66494141 8.81466797 0.64238281 9.56683594 0.61914062 10.34179688 C0.37120934 15.54835384 -0.68407043 19.32467837 -3 24 C-3.66 24 -4.32 24 -5 24 C-5 28.62 -5 33.24 -5 38 C-5.33 38 -5.66 38 -6 38 C-6.08112454 35.41603321 -6.14054748 32.83462432 -6.1875 30.25 C-6.21263672 29.52039063 -6.23777344 28.79078125 -6.26367188 28.0390625 C-6.32635373 23.44239293 -5.72387231 21.54308203 -3 18 C-2.36012947 15.13048137 -2.1239292 12.23863829 -1.875 9.3125 C-1.106301 1.106301 -1.106301 1.106301 0 0 Z " fill="#060517" transform="translate(299,185)"/>
<path d="M0 0 C0.99 0 1.98 0 3 0 C3.36351562 0.77923828 3.36351562 0.77923828 3.734375 1.57421875 C5.79039791 5.85232796 8.00545832 9.30086028 11 13 C12.55407628 15.54228838 14.05389274 18.10997726 15.53515625 20.6953125 C16.86305842 22.78454525 18.17593792 24.34372998 20 26 C19.34 26.66 18.68 27.32 18 28 C4.59274194 9.99596774 4.59274194 9.99596774 0 0 Z " fill="#070519" transform="translate(218,294)"/>
<path d="M0 0 C1.73909024 2.60863536 3.45545464 5.22147138 5.125 7.875 C5.93324219 9.13957031 5.93324219 9.13957031 6.7578125 10.4296875 C8.1018764 13.21080086 8.25110138 14.95403114 8 18 C4.32085287 18 3.60173135 17.17197787 0.875 14.8125 C0.17117187 14.22082031 -0.53265625 13.62914062 -1.2578125 13.01953125 C-3.28073361 10.67457562 -3.65354719 9.03933598 -4 6 C-3.443125 6.7425 -2.88625 7.485 -2.3125 8.25 C-0.06972822 10.91707995 2.22074975 12.91556232 5 15 C4.61912809 11.66737083 4.10840904 10.13140489 1.9375 7.5 C-0.25161538 4.67533499 -0.39712854 3.47487469 0 0 Z " fill="#040214" transform="translate(186,198)"/>
<path d="M0 0 C1.5 1.375 1.5 1.375 3 3 C3 3.66 3 4.32 3 5 C3.66 5.33 4.32 5.66 5 6 C5.28875 6.804375 5.5775 7.60875 5.875 8.4375 C7.23996241 11.54658103 8.02710815 11.60412605 11 13 C12.3544688 13.94971543 13.68775392 14.93024861 15 15.9375 C15.66 16.44152344 16.32 16.94554687 17 17.46484375 C17.66 17.97144531 18.32 18.47804687 19 19 C20.33222233 20.00147963 21.66523793 21.00190783 23 22 C18.59991612 21.45697694 15.97815112 19.86978636 12.4375 17.25 C11.50808594 16.57453125 10.57867187 15.8990625 9.62109375 15.203125 C5.52545428 11.76059048 2.48886646 7.72884627 0 3 C0 2.01 0 1.02 0 0 Z " fill="#050215" transform="translate(174,205)"/>
<path d="M0 0 C3.38230658 1.52673561 6.10259949 3.50252978 9 5.8125 C9.845625 6.47894531 10.69125 7.14539063 11.5625 7.83203125 C14.04841169 10.04305847 15.97362542 12.36911871 18 15 C19.64783606 16.68528688 21.31002677 18.35697047 23 20 C22.67 20.66 22.34 21.32 22 22 C20.91338539 20.94085598 19.83088548 19.87749011 18.75 18.8125 C18.14671875 18.22082031 17.5434375 17.62914063 16.921875 17.01953125 C15 15 15 15 13.125 12.55859375 C10.7453126 9.69334514 8.17228376 7.55381101 5.25 5.25 C3.48375019 3.85364544 1.72870538 2.44257483 0 1 C0 0.67 0 0.34 0 0 Z " fill="#AF6555" transform="translate(370,89)"/>
<path d="M0 0 C8.20294123 1.12939046 15.62743462 6.88639112 21 13 C20.67 13.99 20.34 14.98 20 16 C20 15.34 20 14.68 20 14 C19.34 14 18.68 14 18 14 C17.27425781 13.26265625 16.54851562 12.5253125 15.80078125 11.765625 C12.85171431 8.85357564 9.74297621 6.81114563 6.1875 4.75 C4.10400015 3.52732048 2.04769452 2.28318193 0 1 C0 0.67 0 0.34 0 0 Z " fill="#070615" transform="translate(369,323)"/>
<path d="M0 0 C3.875 1.75 3.875 1.75 5 4 C5.43244838 7.8920354 5.29425531 9.54880853 3.125 12.875 C2.42375 13.57625 1.7225 14.2775 1 15 C0.34 15 -0.32 15 -1 15 C-1 14.34 -1 13.68 -1 13 C-0.34 13 0.32 13 1 13 C2.04214691 8.38492226 2.04214691 8.38492226 1 4 C1.33 3.34 1.66 2.68 2 2 C1.34 2 0.68 2 0 2 C0 1.34 0 0.68 0 0 Z " fill="#070616" transform="translate(308,192)"/>
<path d="M0 0 C0.66 0 1.32 0 2 0 C-0.09872216 6.61904682 -2.83673451 12.82410071 -6 19 C-7.3058334 15.07871478 -6.38030356 13.02168909 -4.59960938 9.31640625 C-4.25736328 8.63449219 -3.91511719 7.95257813 -3.5625 7.25 C-3.05493164 6.20392578 -3.05493164 6.20392578 -2.53710938 5.13671875 C-1.70193542 3.41931879 -0.85234576 1.70894262 0 0 Z " fill="#080619" transform="translate(289,289)"/>
<path d="M0 0 C3.7602985 0.58107632 6.53035032 1.65199496 9.8125 3.5625 C10.60269531 4.01753906 11.39289063 4.47257812 12.20703125 4.94140625 C12.79871094 5.29074219 13.39039063 5.64007813 14 6 C13.01 6.66 12.02 7.32 11 8 C9.53686228 7.23832543 8.07963339 6.46529293 6.625 5.6875 C5.81289063 5.25824219 5.00078125 4.82898438 4.1640625 4.38671875 C2 3 2 3 0 0 Z " fill="#070818" transform="translate(354,315)"/>
<path d="M0 0 C0.495 0.66 0.99 1.32 1.5 2 C4.76269871 5.91523845 8.35925053 9.43878146 12 13 C11.34 13.66 10.68 14.32 10 15 C8.5090151 13.44877329 7.03261088 11.88352332 5.5625 10.3125 C4.73878906 9.44238281 3.91507813 8.57226562 3.06640625 7.67578125 C0.96952096 4.96053281 0.33355506 3.36587377 0 0 Z " fill="#0A081C" transform="translate(226,151)"/>
<path d="M0 0 C3.39540434 1.13180145 4.15357852 2.10357199 6.375 4.8125 C9.02361939 7.94473143 11.66539533 10.57483296 15 13 C14.01 13.33 13.02 13.66 12 14 C9.99387601 12.04761147 7.99507567 10.08862178 6 8.125 C5.42765625 7.56941406 4.8553125 7.01382813 4.265625 6.44140625 C2.80549218 4.99865596 1.39850702 3.5025626 0 2 C0 1.34 0 0.68 0 0 Z " fill="#0A0816" transform="translate(215,247)"/>
<path d="M0 0 C0.33 0 0.66 0 1 0 C1.10957031 0.61488281 1.21914062 1.22976563 1.33203125 1.86328125 C1.49058594 2.67152344 1.64914063 3.47976563 1.8125 4.3125 C1.96332031 5.11300781 2.11414063 5.91351563 2.26953125 6.73828125 C3.08967812 9.27766648 4.03151189 10.25190241 6 12 C7.75 14.5 7.75 14.5 9 17 C8.67 17.99 8.34 18.98 8 20 C-0.57574994 8.51462062 -0.57574994 8.51462062 -0.5 3.25 C-0.335 2.1775 -0.17 1.105 0 0 Z " fill="#050318" transform="translate(208,271)"/>
<path d="M0 0 C3.36487781 1.40872325 5.05709457 2.99655472 7.1875 5.9375 C7.95126953 6.97197266 7.95126953 6.97197266 8.73046875 8.02734375 C10 10 10 10 11 13 C10.01 13.495 10.01 13.495 9 14 C8.68546875 13.46890625 8.3709375 12.9378125 8.046875 12.390625 C5.65859822 8.44852959 3.3366818 5.21310099 0 2 C0 1.34 0 0.68 0 0 Z " fill="#090817" transform="translate(293,262)"/>
<path d="M0 0 C0 0.66 0 1.32 0 2 C-3.51858133 5.25494123 -7.15409462 7.55946315 -12 8 C-12 7.34 -12 6.68 -12 6 C-9.8828125 4.4921875 -9.8828125 4.4921875 -7.125 2.875 C-6.22007813 2.33617187 -5.31515625 1.79734375 -4.3828125 1.2421875 C-2 0 -2 0 0 0 Z " fill="#0A091D" transform="translate(128,324)"/>
<path d="M0 0 C0.33 0.99 0.66 1.98 1 3 C-0.625 5.25 -0.625 5.25 -3 8 C-4.70039297 10.31042095 -6.34554809 12.65619313 -8 15 C-8 11.14003715 -6.66484897 9.58139944 -4.5625 6.375 C-3.92441406 5.39273438 -3.28632812 4.41046875 -2.62890625 3.3984375 C-1 1 -1 1 0 0 Z " fill="#AF6956" transform="translate(98,119)"/>
<path d="M0 0 C0.99 0 1.98 0 3 0 C3 0.66 3 1.32 3 2 C6.63 2 10.26 2 14 2 C12 4 12 4 9.94140625 4.265625 C9.15636719 4.26046875 8.37132812 4.2553125 7.5625 4.25 C6.38880859 4.25773438 6.38880859 4.25773438 5.19140625 4.265625 C3 4 3 4 0 2 C0 1.34 0 0.68 0 0 Z " fill="#03010F" transform="translate(165,173)"/>
<path d="M0 0 C0.53625 0.226875 1.0725 0.45375 1.625 0.6875 C-2.98512242 3.63797835 -5.74029617 5.2372272 -11.375 4.6875 C-3.62774725 -0.47733516 -3.62774725 -0.47733516 0 0 Z " fill="#0B0A1B" transform="translate(173.375,302.3125)"/>
<path d="M0 0 C0.99 0 1.98 0 3 0 C3.61875 0.639375 4.2375 1.27875 4.875 1.9375 C7.28839022 4.27990815 8.7163874 4.63515416 12 5 C12 5.33 12 5.66 12 6 C6.71502591 6.52849741 6.71502591 6.52849741 4 6 C1.5 3 1.5 3 0 0 Z " fill="#05050F" transform="translate(162,137)"/>
<path d="M0 0 C2.6486859 3.19668988 4.93992341 6.39486597 7 10 C3.64501065 8.61172854 1.84949545 7.14414226 0 4 C0 2.68 0 1.36 0 0 Z " fill="#070416" transform="translate(243,316)"/>
<path d="M0 0 C0.66 0 1.32 0 2 0 C0.62845496 2.95409701 -0.98863724 5.44008376 -3 8 C-3.99 7.67 -4.98 7.34 -6 7 C-5.34 7 -4.68 7 -4 7 C-3.71125 6.21625 -3.4225 5.4325 -3.125 4.625 C-2 2 -2 2 0 0 Z " fill="#0C091C" transform="translate(189,283)"/>
<path d="M0 0 C0.66 0.33 1.32 0.66 2 1 C1.01 1.33 0.02 1.66 -1 2 C-1.4640625 2.928125 -1.4640625 2.928125 -1.9375 3.875 C-3.20298687 6.40597375 -4.67272837 7.44848558 -7 9 C-5.44499019 5.18315774 -2.96404505 2.80804268 0 0 Z " fill="#050417" transform="translate(208,259)"/>
<path d="M0 0 C0.33 0.66 0.66 1.32 1 2 C0.22265625 3.7265625 0.22265625 3.7265625 -0.9375 5.625 C-1.618125 6.73875 -2.29875 7.8525 -3 9 C-3.66 9 -4.32 9 -5 9 C-3.7508258 5.54074837 -2.32472205 2.85306797 0 0 Z " fill="#060412" transform="translate(267,312)"/>
<path d="M0 0 C1.98 0 3.96 0 6 0 C4.37660195 1.70884005 2.70680947 3.37446717 1 5 C0.34 5 -0.32 5 -1 5 C-0.67 3.35 -0.34 1.7 0 0 Z " fill="#0A0518" transform="translate(175,118)"/>
</svg>
