<svg xmlns="http://www.w3.org/2000/svg" viewBox="0 0 555.7 546"><g id="Layer_2" data-name="Layer 2"><g id="Layer_1-2" data-name="Layer 1"><path d="M512.5,389.2a13.3,13.3,0,0,0,3.8,4,6.2,6.2,0,0,0,7.3-.5,4.7,4.7,0,0,0,1.7-6.3c-2.3-3.5-.1-5.9,1.2-8.5s2.5-3.2,3.4-5,3.1-4.2,6.5-4.6,5.2-4.5,3-9.9c2.2,1.2,2.9,2.3,2.8,5s-.8,5.1-3.3,5.8c-6.8,1.8-7.9,8.5-11.8,12.8-1.2,1.3-.7,3.4-.6,5.1.6,5.8-1,7.4-6.2,9.9-9.8,4.7-20.1,4.2-30.4,4-6.6-.1-7.1.1-6.8,6.5a27.8,27.8,0,0,1-3.9,15.8c-1.8,3.3-1.4,6,1,8.9,17.1,20.8,34.1,41.7,51.2,62.6,5.1,6.2,8.8,12.9,7.9,21.5s-8.7,20.5-18.1,23.7c-7,2.4-13.8,2.7-20.9,2.7-10.3,0-20.7-.4-31.1.1-14,.8-28.1.4-42.1,1.2-11.8.6-23.7-1.1-35.4-.3s-23.7-.1-35.5,0c-14.7,0-29.5.2-44.2-.3-7.9-.3-15.7.8-23.5.8-17.1.1-34-2-51.1-1.4-9.8.3-19.6-.5-29.4,1-2.5.4-5.2-.3-7.8-.3-10.7-.4-21.5.2-32.2.7-6,.3-11.9-1.1-17.9-.7-18.8,1-37.6,0-56.5-.3-14.9-.1-29.9-.1-44.8-.6A45.1,45.1,0,0,1,31.2,538c-7.4-3.5-8.7-11.3-11-18s-.9-14.6,3.8-20.9c8.3-11,16.8-21.7,25.5-32.3,6.9-8.5,13.4-17.4,20.4-25.8,3-3.6,5.8-7.2,8.7-10.8,1.7-2.1,2.2-4.2.4-6.4-3.8-4.8-4.4-10.6-4.4-16.3-.2-12.5,0-25-.1-37.5-.1-17.7-.6-35.3-.5-52.9.1-9.5.6-19,.5-28.5s-.5-20.7-.5-31,.6-19.3.4-28.9c-.2-16,0-31.9,0-47.9,0-7-.9-14,0-21,2-15.5,12.7-25.1,28.4-25.1H454.2c18.2,0,28.5,10.1,28.7,28.5.2,19.9.1,39.7.1,59.6,0,28.6.1,57.3,0,85.9-.1,8.2,1.4,16.4.7,24.7-1.4,17.6,0,35.2-1.2,52.8-.2,3.9,1.2,5.6,5.1,5.6h20.3C509.8,391.8,511.7,391.7,512.5,389.2ZM278.1,432.6H91.9c-2.3,0-4.3,0-6,2.1Q59.4,468.5,32.7,502c-2.7,3.4-1.8,6.3,2.4,7.7,2.5.9,5.2.6,7.8.6H210.3c3,0,4.6-1,5.2-4.1s2.1-8.7,3.3-13.1c2.2-7.8,5-10,13-10h93.7c6.5.1,9.8,2.6,11.7,8.9a99.9,99.9,0,0,1,3.5,13c.8,4.4,3.1,5.3,7.2,5.3H514.6a40.2,40.2,0,0,0,6-.3c5-.7,6.6-4.4,3.5-8.4a15.6,15.6,0,0,0-1.6-2c-17-21-34.1-41.8-51-62.8-2.5-3.2-5.1-4.4-9.2-4.4C400.9,432.7,339.5,432.6,278.1,432.6Zm0-288.1H101c-8,0-13.6,4.2-16,11.7a23.4,23.4,0,0,0-.6,7v132c0,36.6.1,73.2-.1,109.8-.1,9.8,6.1,15.6,12.7,17.1a33.5,33.5,0,0,0,7.1.5H453.2c13,0,19.1-6.1,19.1-19V339.5q0-87.9.1-175.9c0-6.5-1.6-11.9-6.9-16.2-3.7-2.9-7.8-2.9-12.1-2.9Zm-1.5,375.2H41.1l-7.1-.2c-1,0-2.2-.9-2.8.2s.4,2.1,1.1,3c3.5,4.5,8.4,6,13.7,6.5,13.9,1.2,27.7.5,41.6.5H502.5c4.6,0,9.1-.1,13.4-1.6s7.5-2.8,9.5-6.7c.9-1.8.5-2.7-1.6-2.2a41.3,41.3,0,0,1-8.6.4Zm-29.2-26.5c-4.2.2-7.7.1-11.2.5s-5.1,2.3-5.6,5.5a29.1,29.1,0,0,1-1.7,7.2c-1,2.5-.1,4.2,2.6,3.8,4.5-.7,8.9.4,13.4.2,11.5-.3,23-.3,34.5-.5,13.4-.3,26.9-.6,40.4.2,9.4.6,9.8-.1,7.9-9.2-.1-.7-.3-1.3-.4-1.9-.6-3.7-2.7-5.1-6.5-5.1C296.1,493.8,271.3,494.6,247.4,493.2Z"/><path d="M227.9,69.4c-1.7,0-3.8.3-5.7-.6s-3.2-1.7-2.9-3.9a4,4,0,0,1,3.6-3.4,38.4,38.4,0,0,1,5.9-.2c4.9.3,6.1-.4,6.8-5.1a37.4,37.4,0,0,1,4.8-13.7c1.2-2,2.8-3.8,4.1-5.7s1.4-3.2-1-4.9a89.2,89.2,0,0,1-10.4-9.1c-1.8-1.7-2.9-4.2-.7-6.3s4.5-.4,6.1,1.4c3.3,3.8,8,6.5,9.7,11.7.7,2.1,2.6,1.4,3.7.4,5.9-5.4,13-8.2,20.8-9.6,2.8-.5,3.8-2.2,2.8-5.3A19.9,19.9,0,0,1,275.4,4c.5-1.9,1.3-4,3.8-4s3.6,2.1,4,4.2.4,6.7-.1,10.1,0,5.3,4.6,6.4c16.7,3.7,27.6,14.2,34.2,29.5,1,2.3,1.1,4.9,1.5,7.3s2.3,4.6,5.5,4.1a21.5,21.5,0,0,1,6.7-.2c2.5.4,4.3,1.6,4.2,4.4s-2.1,3.5-4.4,3.6-4.2-.2-6.3-.4-5.3,1-5.5,4.1c-.7,7.9-4.2,14.6-8.7,20.8-2,2.6-1.8,4.4.7,6.2a64.6,64.6,0,0,1,9.3,8.8c1.6,1.7,3.3,4.1,1.2,6.2s-4.4.5-6.1-1.4c-3.3-3.7-7.7-6.3-10-11-1.3-2.8-3.6-1-5,.1-4,3.1-8.4,4.9-13.1,6.5-2.7.9-6.2.2-8.3,2.8s.6,5.7,0,8.6-.4,3.9-.8,5.9-1.1,3.5-3.3,3.4a3.8,3.8,0,0,1-3.9-3.3,28.7,28.7,0,0,1-.5-9.7c.8-5.1-.2-6.2-5.1-7.1a36,36,0,0,1-12.2-4.5l-6.9-3.8c-1.9-.9-3.5-.9-3.8,1.7-.8,6.1-6.3,8.4-10,12a3.5,3.5,0,0,1-4.8-.4,3,3,0,0,1,.1-4.4c3.9-3.4,6.4-8.4,11.5-10.4,2.2-.9,2.4-2.4,1.4-4.2a40.5,40.5,0,0,0-2.9-4.3c-3.3-4.7-5.9-9.6-6.6-15.3S234.5,69.4,227.9,69.4Zm85-4.5c0-19.6-15.1-35-34.3-35.1a34.6,34.6,0,0,0-34.5,34.6c0,19.7,14.9,34.9,34.3,35S312.8,85,312.9,64.9Z"/><path d="M415.9,110.7c16.3,0,32.5.2,48.7-.1,7-.1,13,2.3,17.4,7.2s12.4,8.6,20.1,9.5l2.2.4c5.6,1.5,5.8,1.6,3.5,6.7-.9,2,.6,5.2-1.9,5.8s-3.9-1.3-6-1.8c-4.3-.9-8.5-2.1-12.7-3.2s-8.9-3-11.7-7c-5.8-8.3-14.5-8.5-23.1-8.2-4.2.1-8.4.4-12.7.4H388.4c-8.1,0-16.2-1.1-24.3-.7a12.8,12.8,0,0,1-3.3-.6,3.8,3.8,0,0,1-2.9-3.5,4.2,4.2,0,0,1,2.7-4.2,14.9,14.9,0,0,1,5.5-.7Z"/><path d="M54.3,124.9l.9-.6c3-.3,5.8-1.2,5.2-4.9s-3.7-3.5-6.5-2.9-2.2.1-2.4-1.4-.4-5.1,2.3-6.5a8.9,8.9,0,0,1,4.8-.8c28.8,1.1,57.6.1,86.5.5,3.4,0,5,.6,4.6,4.4-.2,1.8,1,4.2.2,5.3s-3.1-.3-4.8-.3c-11,0-22-.2-32.9-.1-9.3,0-18.5.4-27.7.5-5.2,0-10.5-.4-15.7-.6s-6.7.6-7.7,5.2S57.6,127.2,54.3,124.9Z"/><path d="M528.3,192.4H514.9c-2.9,0-4.3-1-4.4-4.1-.3-9.6-.4-9.5,9.1-9.5H542c3.1-.1,4.2,1,4.1,4.1-.2,10.8,1.4,9.4-9.2,9.5h-8.6Z"/><path d="M521.8,212.4c4.1,2.9,5.6,8.9,3.8,13.5a8.5,8.5,0,0,1-1.5,3c-6.9,7.2-3.9,16.2-4.2,24.6-.1,3,2.3,4.7,5.5,5s6.2-.8,9.2-1.4c1.3-.2,3.1-.7,3.6,1s-1.3,1.9-2.4,2.5a11.4,11.4,0,0,1-3,1.3c-5.4,1.7-6.4,3-6,8.6s-3,11.9-9.1,13.2c-1.7.3-3.4.6-5-.5.8-1.2,1.9-.7,2.8-.9,6-1.1,10.4-6.4,9.9-12.2a11.3,11.3,0,0,0-11.9-10.5c-2.9.1-3.1-.8-3.1-3.3.1-8.1.5-16.2-1.1-24.2-.5-2.4,1-1.7,2.1-1.6,3.4.4,6.7.5,9.5-2.1C525.5,224.1,525.8,220.3,521.8,212.4Z"/><path d="M155.6,122.8c6.1,1.1,11.6,1,14.8-4.8s2.1-9.8-1.6-14.2l.6-.3c5.9,7.9,14.7,3.9,22.1,5.5,1.8.4,3.8,0,5.6.3s3.9,1.9,3.9,4.3-2,3.8-4.3,3.8c-5.6.1-11.2.2-16.8.1-3.2-.1-5.8.5-8.1,3.3C167.3,126.3,161,126.9,155.6,122.8Z"/><path d="M387.1,51.5c0,2.1.1,4.3-.1,6.4-.5,9.3-7.4,15.9-16.8,16H362c-1.6-.1-3.5-.5-3.7-2.5s1.9-2.3,3.3-3a8.1,8.1,0,0,1,4.1,0c9.3.7,15.4-2.8,15.3-12.9a37.3,37.3,0,0,0-.5-8.2,8.2,8.2,0,0,1,.2-4.4c.5-1.5,1.3-2.9,3.1-2.8a2.8,2.8,0,0,1,2.9,2.9c.4,2.8.4,5.7.6,8.5Z"/><path d="M55.8,428.1c2.4,2.3,3.3,7.1,1.8,9.1s-5.1,2.2-7.8,1S43,436.7,39.6,437c-8.2,1-15.4-2.4-22.8-4.8-.4-.1-.8-.6-1.8-1.4,2.9,0,5.3.5,7-1.6s.9-4.4.1-7.1c2.6.6,3.4,2.3,4,4a6.6,6.6,0,0,0,6.2,4.5c4,.4,8,.7,11.9-.3,1.2-.2,2.3-.8,2.2,1.2a5.7,5.7,0,0,0,4.3,5.9c2.1.7,3.5-.6,4.9-2S57.4,430.7,55.8,428.1Z"/><path d="M552.3,76.9a8.2,8.2,0,0,1,3.4,7.1c0,5.8.1,11.5,0,17.3s-2.6,7.8-7.2,8.7a26.4,26.4,0,0,1-6.3.6H502.1c-5.3,0-10.6,1.4-16-.2-1.9-.6-3.9-.7-6.1-2.1h64.5c7.4,0,8.9-1.6,9.4-8.9s-.4-12.4-.5-18.7C553.4,79.4,552.7,78.2,552.3,76.9Z"/><path d="M176.7,89.3c2-.6,3.7.5,5.2-.5a3.8,3.8,0,0,0,1.8-4.4c-.3-1.3-1.3-2.7.6-3.6s4.3-1.7,5.5.3c4,6.2,9.7,5.9,15.9,4.9a5.5,5.5,0,0,1,3.9.9,2.3,2.3,0,0,1,1.2,2.5,2.9,2.9,0,0,1-3,2.4c-4.9.2-9.9.7-14.8-.3a26.2,26.2,0,0,0-10.8-.6A6.8,6.8,0,0,1,176.7,89.3Z"/><path d="M50.7,393.4,43.6,391c-1.7-.5-1.9-1.7-1.7-3.2s.3-2.7.5-4.1c.5-4.9.2-9.5-5.3-11.8-.4-.2-.6-.8-1.5-2,6.8,3,12.6,3.9,17.1-2.1,2.7-3.7,2.3-7.7-1.1-13.2,2.5,1.1,3.4,1.9,3.9,4.5,1,5,.8,9.8-3.7,13.3a7.6,7.6,0,0,0-3,8.5,9.5,9.5,0,0,1,0,4.1,9.1,9.1,0,0,0,1.9,8.4Z"/><path d="M144.7,86.4a4.3,4.3,0,0,1,3.4,4.4,4.5,4.5,0,0,1-2.9,4.4,9.6,9.6,0,0,1-4.7,1.1c-19.9-1.6-39.9-.2-59.8-.7-4-.1-4.3-.2-6.7-3.6,3,1.7,5.6,1.4,8.2,1.4h57.6C145.5,93.5,146.8,91.7,144.7,86.4Z"/><path d="M485.2,100.8c-2.3-.9-2.2-2-2.2-2.9-.1-4.1,0-8.2-.1-12.4,0-2.3,1.1-3.3,3.4-3.3,19.1,0,38.2-.1,57.3,0,.9,0,2-.3,2.5,1.2-7.6,1.7-15.3.9-22.9,1.1H495.1A28.7,28.7,0,0,1,491,84c-4.5-.8-6.3.6-6.2,5.3S483.9,96.6,485.2,100.8Z"/><path d="M174.7,57.6c2.3,3.5,1.9,5.7-1.1,7.1a11,11,0,0,1-5.1.9H97c-1.1,0-2.2.3-3.5-.8,6.4-1.8,12.6-1.2,18.8-1.2,10.1-.1,20.2.6,30.3.4s17.2,0,25.7,0C173.2,64,174.6,62.6,174.7,57.6Z"/><path d="M62.6,310.1c2.3,2.4,1.9,5.1,2.1,7.6.6,6.4-.1,12.7-.6,19.1a6.1,6.1,0,0,1-5,5.8,30.5,30.5,0,0,1-5.2.5H8.2c-2.3,0-4.7.4-7.2-1.6,2.4-.9,4.3,0,6.1,0H52.8c7.9,0,9.8-2.1,9.8-10.1Z"/><path d="M0,276.4H49c5.4,0,7.3-1.6,8.3-7,.5-2.4,2.2-3.1,4-4.1,5.4-3,5.7-3.5,5.6-7.9,2.9,2.2,3.4,4.4.4,6.4a30.5,30.5,0,0,0-10.2,10.9c-2.1,3.5-6.3,4-10.1,3.7-11.2-1-22.4.3-33.6.2C9.1,278.6,4.8,278.9,0,276.4Z"/><path d="M29.8,544.8a1.2,1.2,0,0,1-1,1.2,2,2,0,0,1-1.1-.2c-5.6-2.8-11.8-2.5-17.8-3.6-1.2-.2-3-.3-3.3-1.9s1.5-2,2.6-2.7l3.5-2.1c4.6-3,6.1-3,9.7,1.3a81.8,81.8,0,0,0,6.4,6.8Z"/><path d="M5.6,268.4c-1.5-.4-1.3-1.4-1.4-2.2V252.7c0-2.6,1.1-4,3.8-4H47.3a7.6,7.6,0,0,1,2.5.6,1.3,1.3,0,0,1,.6,1.6c-.2.8-.9.7-1.5.6-9.4-1.3-18.7-.3-28,.1a58,58,0,0,1-9.3-.5c-4.4-.6-5.2.1-5.2,4.4A111.7,111.7,0,0,1,5.6,268.4Z"/><path d="M524.1,314.6h19.8c1.1,0,2.7-.2,2.7,1.3s-1.7,1-2.6,1H514.4a25.9,25.9,0,0,1-4.8-.4c-5-.8-6.3.3-6.3,5.5-.1,3,0,6,0,9,0,.7.3,1.6-.7,1.8s-1.4-.6-1.4-1.4c-.1-4.9-.2-9.9,0-14.9,0-2,1.9-2,3.4-2Z"/><path d="M310.9,28.3a5.6,5.6,0,0,1,.9-2,73.3,73.3,0,0,1,9.6-9.7,3.2,3.2,0,0,1,4.5,0,2.9,2.9,0,0,1,.5,4c-3,4.1-6,8.3-10.8,10.6C312.6,32.7,310.6,31.6,310.9,28.3Z"/><path d="M552.3,308.6a8,8,0,0,1,3.4,6.7c0,6.4.1,12.7-.1,19.1s-3.5,8-9.3,8.1c-8.6.1-17.2,0-25.8,0H504c-2,0-4-.1-5.6-1.7h46c7.2,0,9.7-2.6,9.7-9.8,0-3.8,0-7.7-.1-11.6S554.2,312,552.3,308.6Z"/><path d="M55.7,318c-4.5-1.9-9.1-1.3-13.5-1.5-8.8-.6-17.7-1-26.5.3a17.6,17.6,0,0,1-5.6-.2c-2.6-.4-4,.6-3.8,3.5s.1,7.3.1,10.9c0,.8.4,2-.8,2.1s-1.4-.9-1.4-1.8V317.1c.1-2,1.4-2.5,3.1-2.5H53C54.9,314.6,56.2,315.3,55.7,318Z"/><path d="M40.9,89.7c1.1,4.3-.2,6.7-4.1,6.6-9-.4-18.1,1.7-27.1-.3-2.8-.6-4.2,1.1-3.7,4.8a51.1,51.1,0,0,1-.4,14.6c-1.7-.3-1.4-1.7-1.4-2.6-.1-4.9,0-9.7-.1-14.6,0-2.9,1.2-4.1,4.1-4,8.2,0,16.4-.1,24.7,0C36.5,94.3,39.6,94,40.9,89.7Z"/><path d="M507.5,199.1h37.8c6.3,0,8-1.7,8.1-8V175.5a1.7,1.7,0,0,1,1.2,1.8,87.2,87.2,0,0,1-.3,19.1,4.3,4.3,0,0,1-3.7,3.7c-3.4.8-6.7,1.5-10.3.9a32.4,32.4,0,0,0-11.2.1C521.7,202.3,512.8,201.5,507.5,199.1Z"/><path d="M39.5,118.2c2.2,2.5,1,4.4-.8,6a6.5,6.5,0,0,1-4.2,1.4H7.2a8,8,0,0,1-4.9-1.2c.8-1.3,1.9-.8,2.8-.8,9.1.2,18.2-.4,27.2.4C36.1,124.2,37.4,123,39.5,118.2Z"/><path d="M11.8,170c1.2-.8,2.2-.1,3.2-.2,3.1-.4,5.5-1.4,5.8-5.1a65.1,65.1,0,0,1,1.3-7.7c.7-2.9,2.5-4.5,5.7-4.3,1.2.1,2.5,0,3.7,0,5.3.1,5.6-.1,8.2-4.6,1,2.7.5,4.5-1.9,5.8s-5.5,1.2-8.4.8-5.1.2-5.8,4.3c-.4,2.2-.5,4.4-.9,6.6C21.8,171,16.7,173.1,11.8,170Z"/><path d="M519.3,134.2c3,0,5,1.9,5,4.8a4.9,4.9,0,0,1-5.1,5.2,4.8,4.8,0,0,1-4.8-5.1A4.7,4.7,0,0,1,519.3,134.2Z"/><path d="M46.4,321.6a3.6,3.6,0,0,1,1.7,4.5c-.6,1.8-2,3.4-4,3.4-9.6.1-19.2.2-28.8-.1-3.5-.1-4.2-2.8-3.9-6.9,1.5,2.2.8,4.4,2.7,5.1s3.4.5,5.1.5H39.4C45.3,328.1,45.7,327.8,46.4,321.6Z"/><path d="M45.4,104.3c1.4,3.7-.4,5.2-3.6,5.8-6.7,1.1-13.4.3-20.2.5a52.3,52.3,0,0,1-5.6,0c-1.4-.1-3-.2-3.7-2a236.9,236.9,0,0,1,25.3.5C41.2,109.3,44.3,108.6,45.4,104.3Z"/><path d="M529.4,131.2c4.1,3,4.3,7.2,3.6,11.6s-4.6,8.9-9.7,10.3-9.2.1-12.7-4c6.3,3.2,12.6,4.3,17.8-1.3S532.7,137,529.4,131.2Z"/><path d="M50.7,393.4c6.1,4.9,6.7,12.9,1.5,18.4s-12.5,4.5-16.7-.1c3.3,1.1,6,2.2,9.1,1.5,7.8-1.8,11.4-9.2,7.7-16.4a35.4,35.4,0,0,1-1.6-3.4Z"/><path d="M164.7,112c-.1,2.6-1.5,4.4-4.2,4.6a3.6,3.6,0,0,1-4.1-3.9c0-2.5,1-4.8,4-4.9S164.6,109.1,164.7,112Z"/><path d="M540,231.5c2.1,4.7,1.3,9.2,3.5,12.9-4.4.9-8.7,1.9-11-3.3C539.8,241,539.9,238.8,540,231.5Z"/><path d="M509.9,270.5c.2-2.6,1.6-4,4.1-3.8s4.1,1.4,4.1,3.9-1.5,4.3-4.2,4.2S510,273,509.9,270.5Z"/><path d="M14.6,227.7c7,2.3,9.4.8,10.5-5.6.3-1.9,1.6-3.1,2.7-4.4l3.4-4c.6-.7.7-2.3,2-1.6s.6,2,.1,2.9a6.7,6.7,0,0,1-1.7,2,22.7,22.7,0,0,0-5.7,8.6C24,230.5,19.5,231.5,14.6,227.7Z"/><path d="M278,473.7H100.2c-2.1,0-4.3-.1-6.4-.3s-3.4-.9-3.6-3.1a3.9,3.9,0,0,1,2.8-4c3.6-1.5,7.5-1.5,11.4-1.5H453.8a29.7,29.7,0,0,1,8.9,1c2.2.6,4.2,1.9,4,4.6s-2.4,2.9-4.5,3.1a51.2,51.2,0,0,1-5.6.3H278Z"/><path d="M278.7,459.6H104.2c-1.5,0-3.2.2-3.8-1.6s.7-3.4,2.1-4.4c3.5-2.4,7.6-2.4,11.6-2.4H444c2.9,0,5.8,0,8.5,1s5.5,2.3,5.1,5.2-3.7,2.3-5.9,2.3Z"/><path d="M279.6,438.3H439.8a8.6,8.6,0,0,1,6.1,2.5c1,1.1,2.2,2.4,1.7,4s-2.5,1.3-3.9,1.3H115c-1.7-.4-4.3,1-4.7-1.5s1.3-4.2,3.5-5.2,5.6-1.2,8.5-1.2Z"/><path d="M278.4,155.6H448.8c9.8-.1,14.8,4.7,14.8,14.6.1,50.2,0,100.5,0,150.7v74.6c0,10.6-4.7,15.2-15.4,15.2H109.7c-5.8,0-11.3-.4-14.6-6.2-1.7-2.9-1.9-5.9-1.9-9.1q.1-94,.1-188.1c0-12,.4-24.1-.2-36s7.1-15.9,15.7-15.8c56.5.2,113.1.1,169.6.1Zm-8.7,216.8H200.4a27.5,27.5,0,0,0-4.1.2,2.8,2.8,0,0,0-2.8,2.9,2.6,2.6,0,0,0,2.3,3,22.4,22.4,0,0,0,5.2.5H339.5c2.8,0,6.6.7,6.6-3.4s-3.8-3.2-6.4-3.2Zm-21.2-49.6h60.3a3,3,0,0,0,3.1-2.7,3.3,3.3,0,0,0-2.3-3.8,13.1,13.1,0,0,0-5.2-.6H194.3a28.4,28.4,0,0,0-4.1.1c-2.3.4-5.2.7-4.9,3.9s2.8,3.1,5.1,3.1h58.1Zm-18.3-14.7h46.4c2.5,0,5.1-.1,5.3-3.3s-2.6-3.5-5-3.5c-4.9-.1-9.8,0-14.6,0H184.1c-2.7,0-5.5.5-5.3,3.8s2.7,3.3,5,3.2C199.3,307.5,214.7,308.2,230.2,308.1Zm23-112.8h39.3c2.8,0,6.6.4,6.5-3.6s-3.9-3.5-6.7-3.5H214a18.2,18.2,0,0,0-3.3.1c-1.9.4-3.3,1.4-3.2,3.5s1.5,3.1,3.4,3.3a23,23,0,0,0,3.7.2Zm-46.6,98.2h36.3a14.3,14.3,0,0,0,4.1-.4,3.3,3.3,0,0,0,2.5-3.7,3.2,3.2,0,0,0-2.9-2.9,15.1,15.1,0,0,0-3-.2H171a18.4,18.4,0,0,0-4.1.3,3.5,3.5,0,0,0,.3,6.8h39.4Zm13-30.6h35.2c2.4,0,5-.3,5.1-3.1s-2.5-3.6-5.1-3.6l-69.2-.5a10.9,10.9,0,0,0-4.4.6,3.3,3.3,0,0,0-2.2,3.5,3.1,3.1,0,0,0,2.9,3,22.9,22.9,0,0,0,3.7.1Zm-25.9-30.1h25.4c2.6,0,5.1-.5,5-3.7s-2.4-3.4-4.9-3.4h-50c-2.5,0-5,.6-5.1,3.7s2.5,3.4,5,3.4Zm15.7,15.1h25.1c2.4,0,4.8-.3,4.7-3.4s-2.5-3.2-4.9-3.2h-49l-4.1.3a2.8,2.8,0,0,0-2.2,2.7,2.8,2.8,0,0,0,2,3.2,14,14,0,0,0,4.1.5ZM247,210.4H223.8c-2.1,0-3.8.7-4.1,3s1.4,3.8,3.6,3.8c15.8.7,31.7.4,47.5.2a3.3,3.3,0,0,0,3.4-3.4,3.6,3.6,0,0,0-3.6-3.6H247Zm-77.6-15.1h22.4c2.3,0,4.5-.6,4.6-3.2s-2.1-3.8-4.7-3.8H148.8a18.4,18.4,0,0,0-4.1.4c-1.5.3-3,1-2.8,2.9a4,4,0,0,0,2.8,3.6,19.4,19.4,0,0,0,3.4.2ZM351.1,308.5h21.7c2.5,0,5.1-.2,5.1-3.5s-2.4-3.7-5.1-3.7h-43c-2.6,0-5.1.6-5.1,3.6s2.5,3.6,5.1,3.6ZM249.8,353.6h19.8c2.4,0,4.8-.2,4.9-3.3s-2.4-3.7-4.7-3.8c-13.4-.1-26.7,0-40,0-2.2,0-4.4.8-4.4,3.6s2.2,3.5,4.6,3.5Zm-80-143.1H150.4c-2.6,0-5,.4-5.1,3.6s2.7,3.6,5.1,3.6H189c2.5,0,5.1-.6,5.1-3.6s-2.6-3.6-5.2-3.6Zm57.6,127.9h16.5c2.6,0,5.1-.6,5-3.7s-2.3-3.5-4.8-3.5H211.2c-2.8,0-4.8.9-4.8,3.9s2.4,3.2,4.6,3.2C216.5,338.5,222,338.4,227.4,338.4Zm-65.3,34H145.6c-1.9,0-3.6.8-3.7,2.9s1.5,3,3.2,3.4a6.3,6.3,0,0,0,1.9.3h30.6c2.4,0,4.5-.7,4.6-3.4s-2.2-3.2-4.4-3.2ZM386.6,210.5H371.7c-2.2,0-3.7,1.1-3.8,3.3s1.5,3.3,3.6,3.4l29.2.3c2.4,0,4.9-.7,4.7-3.6s-2.4-3.5-4.9-3.5ZM163.1,353.6h13.4c2.2,0,4.2-.5,4.4-3.1s-1.6-3.8-3.7-3.9a256,256,0,0,0-27.7,0c-2,.2-4.2,1-3.9,3.7s2.1,3.2,4.4,3.2Zm16.5-15.1h11.6c2.4,0,4.4-1,4.4-3.6s-1.9-3.4-4.2-3.4H168.2c-2.4,0-4.2,1.3-4.1,3.9s2.1,3.1,4.3,3.1Zm-21.7-60h0c2.6,0,5.2.1,7.9,0s3.8-.8,3.8-3.1a3.5,3.5,0,0,0-3.7-3.9c-5.3-.1-10.7-.1-16.1.1a3.3,3.3,0,0,0-3.5,3.6c0,2.2,1.7,3.2,3.8,3.3S155.3,278.5,157.9,278.5Zm229.8,94h-7.8c-2.2,0-4.2.8-4.2,3.2s1.8,3.3,3.9,3.3c5.4.1,10.9.1,16.4,0,2.1,0,3.8-.9,3.7-3.3s-1.9-3.4-4.1-3.4ZM297,256.3l-2.3.2a3.5,3.5,0,0,0-3.2,3.2c-.1,2,1.2,2.9,3,3.2l2.2.4c3.6.4,7-1.3,6.7-3.6S299.9,256.4,297,256.3Zm47.9.1a6.9,6.9,0,0,0-2.7.5,3,3,0,0,0-.6,5.4c1.9,1.4,7.1,1.4,8.9-.2s1.4-3.3-.4-4.7S347.4,256.3,344.9,256.4Zm6.1-38.7a6.6,6.6,0,0,0,3.9-.8c1.3-.8,2.3-1.8,1.7-3.4s-2.8-2.9-5-2.9-4.9,0-6,2.7a2.9,2.9,0,0,0,1.5,3.5A7.5,7.5,0,0,0,351,217.7Zm-76.2,38.6c-2.1.2-4.9.1-5,3.3s2.9,3.6,5.4,3.8,5.1-.5,5.1-3.6S277.6,256.4,274.8,256.3Zm35.7,97.3c2.2-.2,5.1.1,5.1-3.2s-3.1-3.7-5.6-3.8-4.9.3-5,3.3S307.7,353.6,310.5,353.6Zm13.6-90.2c2.3-.1,4.8-.4,5.1-3.5s-1.8-3.5-4.2-3.5-5.9-.5-6.1,3.2S321.4,263.2,324.1,263.4Zm-35.3-52.8c-1.9.2-4.7-.1-4.9,3.3s2,3.8,4.5,3.8,5.4.1,5.5-3.4S291.7,210.7,288.8,210.6Zm1,143c2.3,0,4.8-.1,4.9-3.2s-2.4-3.9-4.9-3.8-5.1.4-5.1,3.6S287.3,353.5,289.8,353.6Zm19.9-143c-2.6.1-5.3.1-5.6,3.5s1.8,3.5,4.2,3.6,5.4,0,5.8-3.2S312.1,210.8,309.7,210.6Zm19.7,7.1c2.7,0,5.3-.4,5.4-3.2s-2.2-3.9-4.9-3.9-5.2.5-5.3,3.6S327.3,217.6,329.4,217.7Zm11.7,129c-2.5.2-5.2.5-5,3.7s2.6,3.2,4.9,3.3,5.1-.5,5.2-3.5S343.4,347,341.1,346.7Z"/></g></g></svg>